<?xml version="1.0" encoding="UTF-8"?><svg id="a" xmlns="http://www.w3.org/2000/svg" viewBox="0 0 50 25"><path d="M8.26,10.85l2.19-5.7h.81l2.33,5.7h-.86l-.67-1.73h-2.38l-.63,1.73h-.8Zm1.64-2.34h1.93l-.59-1.58c-.18-.48-.32-.87-.4-1.18-.07,.37-.18,.73-.31,1.09l-.62,1.67Z"/><path d="M14.17,10.85V5.15h.75v5.03h2.81v.67h-3.56Z"/><path d="M19.48,10.85V5.82h-1.88v-.67h4.52v.67h-1.89v5.03h-.75Z"/><path d="M22.91,10.85V5.15h4.12v.67h-3.37v1.74h3.15v.67h-3.15v1.94h3.5v.67h-4.25Z"/><path d="M28.22,10.85V5.15h2.53c.51,0,.89,.05,1.16,.15,.26,.1,.48,.28,.63,.54,.16,.26,.24,.54,.24,.86,0,.4-.13,.75-.39,1.02s-.67,.45-1.21,.53c.2,.1,.35,.19,.46,.29,.22,.2,.43,.46,.62,.76l.99,1.55h-.95l-.75-1.19c-.22-.34-.4-.6-.54-.79s-.27-.31-.38-.38c-.11-.07-.23-.12-.34-.15-.08-.02-.22-.03-.42-.03h-.87v2.53h-.75Zm.75-3.18h1.62c.35,0,.62-.04,.81-.11,.2-.07,.34-.19,.44-.34,.1-.16,.15-.33,.15-.51,0-.27-.1-.49-.29-.66-.2-.17-.51-.26-.93-.26h-1.8v1.88Z"/><path d="M33.95,10.85V5.15h.77l2.99,4.47V5.15h.72v5.7h-.77l-2.99-4.48v4.48h-.72Z"/><path d="M39.34,9.14v-.7h2.15v.7h-2.15Z"/><path d="M9.29,20.4l2.19-5.7h.81l2.33,5.7h-.86l-.67-1.72h-2.38l-.63,1.72h-.8Zm1.64-2.34h1.93l-.59-1.58c-.18-.48-.32-.87-.4-1.18-.07,.37-.18,.73-.31,1.09l-.62,1.67Z"/><path d="M16.08,20.4v-5.03h-1.88v-.67h4.52v.67h-1.88v5.03h-.75Z"/><path d="M19.62,20.4v-5.7h.75v5.7h-.75Z"/><path d="M23.33,20.4l-2.21-5.7h.82l1.48,4.14c.12,.33,.22,.64,.3,.93,.09-.31,.19-.62,.31-.93l1.54-4.14h.77l-2.23,5.7h-.77Z"/><path d="M27.03,20.4v-5.7h4.12v.67h-3.37v1.75h3.15v.67h-3.15v1.94h3.5v.67h-4.25Z"/><path d="M32.29,20.4v-5.7h.75v5.03h2.81v.67h-3.56Z"/><path d="M37.77,20.4v-2.41l-2.2-3.28h.92l1.12,1.72c.21,.32,.4,.64,.58,.96,.17-.3,.38-.63,.62-1.01l1.1-1.68h.88l-2.27,3.28v2.41h-.75Z"/></svg>