<?xml version="1.0" encoding="UTF-8"?><svg id="a" xmlns="http://www.w3.org/2000/svg" viewBox="0 0 50 25"><path d="M4.15,16.9l2.99-7.78h1.11l3.18,7.78h-1.17l-.91-2.36h-3.25l-.85,2.36h-1.09Zm2.24-3.2h2.64l-.81-2.15c-.25-.66-.43-1.19-.55-1.61-.1,.5-.24,1-.42,1.49l-.86,2.28Z"/><path d="M12.27,16.9v-7.78h3.45c.69,0,1.22,.07,1.58,.21,.36,.14,.65,.39,.87,.74,.21,.35,.32,.75,.32,1.17,0,.55-.18,1.02-.54,1.4-.36,.38-.91,.62-1.66,.72,.27,.13,.48,.26,.62,.39,.3,.28,.59,.62,.85,1.03l1.35,2.12h-1.29l-1.03-1.62c-.3-.47-.55-.82-.74-1.07-.2-.25-.37-.42-.52-.52-.15-.1-.31-.17-.47-.21-.12-.02-.31-.04-.57-.04h-1.19v3.46h-1.03Zm1.03-4.35h2.21c.47,0,.84-.05,1.1-.15,.27-.1,.47-.25,.61-.47,.14-.21,.21-.45,.21-.7,0-.37-.13-.67-.4-.91-.27-.24-.69-.36-1.27-.36h-2.46v2.57Z"/><path d="M20.12,16.9v-7.78h3.45c.69,0,1.22,.07,1.58,.21s.65,.39,.87,.74c.21,.35,.32,.75,.32,1.17,0,.55-.18,1.02-.54,1.4-.36,.38-.91,.62-1.66,.72,.27,.13,.48,.26,.62,.39,.3,.28,.59,.62,.86,1.03l1.35,2.12h-1.29l-1.03-1.62c-.3-.47-.55-.82-.74-1.07-.19-.25-.37-.42-.52-.52-.15-.1-.31-.17-.47-.21-.12-.02-.31-.04-.57-.04h-1.19v3.46h-1.03Zm1.03-4.35h2.21c.47,0,.84-.05,1.1-.15,.26-.1,.47-.25,.6-.47,.14-.21,.21-.45,.21-.7,0-.37-.13-.67-.4-.91s-.69-.36-1.27-.36h-2.46v2.57Z"/><path d="M27.64,13.11c0-1.29,.35-2.3,1.04-3.03,.69-.73,1.59-1.1,2.69-1.1,.72,0,1.37,.17,1.94,.51,.58,.34,1.02,.82,1.32,1.44,.3,.61,.45,1.31,.45,2.09s-.16,1.5-.48,2.12c-.32,.62-.77,1.09-1.35,1.41-.58,.32-1.21,.48-1.89,.48-.73,0-1.39-.18-1.96-.53-.58-.35-1.01-.84-1.31-1.45s-.45-1.26-.45-1.94Zm1.06,.02c0,.94,.25,1.68,.76,2.22,.5,.54,1.14,.81,1.9,.81s1.41-.27,1.91-.82c.5-.54,.75-1.32,.75-2.32,0-.63-.11-1.19-.32-1.66-.21-.47-.53-.84-.94-1.1s-.88-.39-1.39-.39c-.73,0-1.36,.25-1.88,.75-.53,.5-.79,1.34-.79,2.51Z"/><path d="M37.77,16.9l-2.06-7.78h1.06l1.18,5.1c.13,.53,.24,1.07,.33,1.59,.2-.83,.32-1.31,.35-1.44l1.48-5.25h1.24l1.11,3.94c.28,.98,.48,1.89,.6,2.75,.1-.49,.23-1.06,.39-1.69l1.22-5h1.04l-2.13,7.78h-.99l-1.64-5.93c-.14-.5-.22-.8-.24-.91-.08,.36-.16,.66-.23,.91l-1.65,5.93h-1.05Z"/></svg>