<?xml version="1.0" encoding="UTF-8"?><svg id="a" xmlns="http://www.w3.org/2000/svg" viewBox="0 0 50 50"><path d="M5.04,22.14v-7.21h2.7c.55,0,.99,.07,1.32,.22,.33,.15,.59,.37,.78,.67,.19,.3,.28,.62,.28,.95,0,.31-.08,.6-.25,.87-.17,.27-.42,.49-.76,.66,.44,.13,.77,.35,1,.65,.23,.31,.35,.67,.35,1.09,0,.34-.07,.65-.21,.94s-.32,.51-.53,.67c-.21,.16-.47,.28-.79,.36-.32,.08-.7,.12-1.16,.12h-2.75Zm.95-4.18h1.56c.42,0,.73-.03,.91-.08,.24-.07,.42-.19,.55-.36,.12-.17,.18-.38,.18-.63,0-.24-.06-.45-.17-.63-.11-.18-.28-.31-.49-.37-.21-.07-.58-.1-1.1-.1h-1.44v2.18Zm0,3.33h1.79c.31,0,.52-.01,.65-.03,.22-.04,.4-.1,.55-.2s.27-.23,.36-.4c.09-.18,.14-.38,.14-.61,0-.27-.07-.5-.21-.7s-.33-.34-.57-.42c-.24-.08-.6-.12-1.05-.12h-1.67v2.48Z"/><path d="M11.81,22.14v-7.21h5.21v.85h-4.26v2.21h3.99v.85h-3.99v2.45h4.42v.85h-5.38Z"/><path d="M18.56,22.14v-7.21h4.86v.85h-3.91v2.23h3.38v.85h-3.38v3.27h-.95Z"/><path d="M24.37,18.63c0-1.2,.32-2.13,.96-2.81s1.47-1.02,2.49-1.02c.67,0,1.26,.16,1.8,.48s.94,.76,1.22,1.33c.28,.57,.42,1.21,.42,1.93s-.15,1.38-.44,1.96c-.29,.58-.71,1.01-1.25,1.31-.54,.3-1.12,.44-1.75,.44-.68,0-1.29-.16-1.82-.49s-.94-.77-1.21-1.34c-.28-.57-.41-1.17-.41-1.8Zm.98,.01c0,.87,.23,1.55,.7,2.05,.47,.5,1.05,.75,1.76,.75s1.31-.25,1.77-.76c.46-.5,.7-1.22,.7-2.15,0-.59-.1-1.1-.3-1.54s-.49-.78-.87-1.02c-.38-.24-.81-.36-1.29-.36-.67,0-1.26,.23-1.74,.7-.49,.46-.73,1.24-.73,2.32Z"/><path d="M32.5,22.14v-7.21h3.2c.64,0,1.13,.06,1.46,.19,.33,.13,.6,.36,.8,.69s.3,.69,.3,1.09c0,.51-.17,.94-.5,1.29-.33,.35-.84,.57-1.53,.67,.25,.12,.44,.24,.58,.36,.28,.26,.54,.58,.79,.96l1.25,1.96h-1.2l-.95-1.5c-.28-.43-.51-.76-.69-.99-.18-.23-.34-.39-.48-.48s-.29-.16-.44-.19c-.11-.02-.29-.03-.53-.03h-1.11v3.2h-.95Zm.95-4.03h2.05c.44,0,.78-.04,1.02-.14s.43-.23,.56-.43,.19-.41,.19-.65c0-.34-.12-.62-.37-.84-.25-.22-.64-.33-1.17-.33h-2.28v2.38Z"/><path d="M39.78,22.14v-7.21h5.21v.85h-4.26v2.21h3.99v.85h-3.99v2.45h4.42v.85h-5.38Z"/><path d="M12.27,31.7l.95,.24c-.2,.78-.56,1.38-1.08,1.79-.52,.41-1.15,.62-1.9,.62s-1.41-.16-1.9-.47c-.49-.32-.86-.77-1.11-1.37-.25-.6-.38-1.24-.38-1.93,0-.75,.14-1.41,.43-1.96,.29-.56,.69-.98,1.22-1.27s1.11-.44,1.75-.44c.72,0,1.33,.18,1.82,.55,.49,.37,.83,.88,1.03,1.55l-.94,.22c-.17-.52-.41-.91-.73-1.15-.32-.24-.72-.36-1.2-.36-.55,0-1.02,.13-1.39,.4-.37,.27-.63,.62-.78,1.07-.15,.45-.23,.91-.23,1.38,0,.61,.09,1.15,.27,1.6,.18,.46,.46,.8,.83,1.02s.78,.34,1.22,.34c.53,0,.99-.15,1.36-.46,.37-.31,.62-.77,.75-1.37Z"/><path d="M14.43,34.23v-7.21h.95v2.96h3.75v-2.96h.95v7.21h-.95v-3.4h-3.75v3.4h-.95Z"/><path d="M21.69,34.23v-7.21h3.2c.64,0,1.13,.06,1.46,.19,.33,.13,.6,.36,.8,.69s.3,.69,.3,1.09c0,.51-.17,.94-.5,1.29-.33,.35-.84,.57-1.53,.67,.25,.12,.44,.24,.58,.36,.28,.26,.54,.58,.79,.96l1.25,1.96h-1.2l-.95-1.5c-.28-.43-.51-.76-.69-.99-.18-.23-.34-.39-.48-.48s-.29-.16-.44-.19c-.11-.02-.29-.03-.53-.03h-1.11v3.2h-.95Zm.95-4.03h2.05c.44,0,.78-.04,1.02-.14s.43-.23,.56-.43,.19-.41,.19-.65c0-.34-.12-.62-.37-.84-.25-.22-.64-.33-1.17-.33h-2.28v2.38Z"/><path d="M29.1,34.23v-7.21h.95v7.21h-.95Z"/><path d="M31.42,31.91l.9-.08c.04,.36,.14,.66,.3,.89,.16,.23,.4,.42,.72,.56,.33,.14,.7,.21,1.11,.21,.36,0,.68-.05,.96-.16,.28-.11,.49-.26,.62-.44s.2-.39,.2-.62-.07-.42-.2-.59-.35-.31-.65-.43c-.19-.08-.62-.19-1.28-.35-.66-.16-1.13-.31-1.39-.45-.34-.18-.6-.4-.77-.67s-.25-.57-.25-.9c0-.36,.1-.7,.31-1.02,.21-.32,.51-.56,.9-.72s.84-.25,1.32-.25c.53,0,1.01,.09,1.41,.26,.41,.17,.72,.43,.94,.76,.22,.33,.34,.71,.35,1.14l-.91,.07c-.05-.46-.22-.8-.5-1.03-.28-.23-.7-.35-1.26-.35s-1,.11-1.26,.32c-.26,.21-.4,.47-.4,.76,0,.26,.09,.47,.28,.64,.18,.17,.66,.34,1.44,.51,.77,.18,1.31,.33,1.59,.46,.42,.19,.73,.44,.93,.73,.2,.3,.3,.64,.3,1.02s-.11,.74-.33,1.08-.54,.6-.95,.79-.87,.28-1.39,.28c-.65,0-1.2-.1-1.64-.29-.44-.19-.79-.48-1.04-.86-.25-.38-.38-.81-.4-1.3Z"/><path d="M40.29,34.23v-6.36h-2.37v-.85h5.71v.85h-2.38v6.36h-.95Z"/></svg>