<?xml version="1.0" encoding="UTF-8"?><svg id="a" xmlns="http://www.w3.org/2000/svg" viewBox="0 0 50 50"><path d="M5.21,29.32v-8.05h3.02c.61,0,1.11,.08,1.48,.24,.37,.16,.66,.41,.87,.75,.21,.34,.32,.69,.32,1.06,0,.34-.09,.67-.28,.97-.19,.3-.47,.55-.85,.74,.49,.14,.86,.39,1.12,.73,.26,.34,.39,.75,.39,1.22,0,.38-.08,.73-.24,1.05-.16,.32-.36,.57-.59,.75-.23,.18-.53,.31-.88,.4-.35,.09-.79,.13-1.3,.13h-3.07Zm1.07-4.67h1.74c.47,0,.81-.03,1.02-.09,.27-.08,.47-.21,.61-.4,.14-.19,.21-.42,.21-.7,0-.27-.06-.5-.19-.71s-.31-.34-.55-.42c-.24-.08-.65-.11-1.22-.11h-1.61v2.43Zm0,3.72h2c.34,0,.59-.01,.72-.04,.25-.04,.45-.12,.62-.22,.16-.1,.3-.25,.41-.45,.11-.2,.16-.42,.16-.68,0-.3-.08-.56-.23-.78-.15-.22-.37-.38-.64-.47-.27-.09-.67-.13-1.18-.13h-1.86v2.77Z"/><path d="M12.77,29.32v-8.05h5.82v.95h-4.75v2.46h4.45v.94h-4.45v2.74h4.94v.95h-6Z"/><path d="M19.88,26.73l1-.09c.05,.4,.16,.73,.33,.99s.44,.47,.81,.63c.37,.16,.78,.24,1.23,.24,.41,0,.77-.06,1.08-.18,.31-.12,.54-.29,.69-.5,.15-.21,.23-.44,.23-.69s-.07-.47-.22-.66c-.15-.19-.39-.35-.72-.48-.22-.08-.69-.21-1.43-.39-.74-.18-1.26-.35-1.55-.5-.38-.2-.67-.45-.86-.75s-.28-.63-.28-1c0-.41,.12-.79,.35-1.14s.57-.62,1.01-.8c.44-.18,.94-.28,1.48-.28,.6,0,1.12,.1,1.58,.29,.46,.19,.81,.47,1.05,.85,.25,.37,.38,.8,.39,1.27l-1.02,.08c-.05-.51-.24-.89-.56-1.15s-.78-.39-1.4-.39-1.11,.12-1.41,.35c-.29,.24-.44,.52-.44,.85,0,.29,.1,.53,.31,.71,.21,.19,.74,.38,1.61,.57,.87,.2,1.46,.37,1.78,.51,.47,.22,.81,.49,1.04,.82,.22,.33,.33,.71,.33,1.14s-.12,.83-.37,1.21c-.25,.38-.6,.67-1.06,.88-.46,.21-.98,.32-1.55,.32-.73,0-1.34-.11-1.83-.32-.49-.21-.88-.53-1.16-.96-.28-.43-.43-.91-.44-1.45Z"/><path d="M27.93,29.32v-8.05h1.06v8.05h-1.06Z"/><path d="M30.87,29.32v-8.05h2.77c.62,0,1.1,.04,1.43,.12,.46,.11,.85,.3,1.18,.58,.42,.36,.74,.82,.95,1.38,.21,.56,.32,1.2,.32,1.91,0,.61-.07,1.15-.21,1.62-.14,.47-.33,.86-.55,1.17-.22,.31-.47,.55-.73,.73-.27,.18-.59,.31-.96,.4-.38,.09-.81,.14-1.29,.14h-2.9Zm1.07-.95h1.72c.53,0,.95-.05,1.25-.15,.3-.1,.54-.24,.72-.42,.25-.25,.45-.59,.59-1.02,.14-.43,.21-.94,.21-1.55,0-.84-.14-1.49-.41-1.94s-.61-.75-1.01-.91c-.29-.11-.74-.17-1.38-.17h-1.69v6.15Z"/><path d="M39.01,29.32v-8.05h5.82v.95h-4.75v2.46h4.45v.94h-4.45v2.74h4.94v.95h-6Z"/></svg>