<?xml version="1.0" encoding="UTF-8"?><svg id="a" xmlns="http://www.w3.org/2000/svg" viewBox="0 0 50 25"><path d="M2.51,15.18v-5.86h2.2c.45,0,.81,.06,1.08,.18s.48,.3,.63,.55c.15,.25,.23,.5,.23,.77,0,.25-.07,.49-.2,.71-.14,.22-.34,.4-.62,.54,.35,.1,.63,.28,.82,.53s.29,.55,.29,.89c0,.27-.06,.53-.17,.77-.12,.24-.26,.42-.43,.54-.17,.13-.38,.22-.64,.29-.26,.07-.57,.1-.95,.1H2.51Zm.78-3.4h1.27c.34,0,.59-.02,.74-.07,.2-.06,.34-.16,.45-.29,.1-.14,.15-.31,.15-.51,0-.19-.05-.37-.14-.51-.09-.15-.23-.25-.4-.3-.17-.05-.47-.08-.89-.08h-1.17v1.77Zm0,2.71h1.46c.25,0,.43,0,.53-.03,.18-.03,.33-.08,.45-.16,.12-.08,.22-.18,.3-.33s.12-.31,.12-.49c0-.22-.06-.41-.17-.57-.11-.16-.27-.27-.47-.34s-.48-.1-.86-.1h-1.35v2.01Z"/><path d="M7.77,12.33c0-.97,.26-1.73,.78-2.28s1.2-.83,2.02-.83c.54,0,1.03,.13,1.46,.39,.43,.26,.76,.62,.99,1.08,.23,.46,.34,.99,.34,1.57s-.12,1.12-.36,1.59c-.24,.47-.58,.82-1.02,1.07s-.91,.36-1.42,.36c-.55,0-1.04-.13-1.48-.4-.43-.27-.76-.63-.99-1.09s-.34-.95-.34-1.46Zm.8,.01c0,.71,.19,1.26,.57,1.67,.38,.41,.86,.61,1.43,.61s1.06-.21,1.44-.62,.57-.99,.57-1.75c0-.48-.08-.89-.24-1.25-.16-.36-.4-.63-.71-.83-.31-.2-.66-.29-1.04-.29-.55,0-1.02,.19-1.42,.56s-.59,1.01-.59,1.89Z"/><path d="M18.21,9.32h.77v3.38c0,.59-.07,1.06-.2,1.4-.13,.35-.37,.63-.72,.85s-.8,.33-1.37,.33-1-.1-1.35-.28c-.35-.19-.6-.46-.75-.82s-.22-.85-.22-1.47v-3.38h.78v3.38c0,.51,.05,.88,.14,1.12s.26,.43,.49,.56c.23,.13,.51,.2,.84,.2,.57,0,.98-.13,1.22-.39,.24-.26,.36-.75,.36-1.49v-3.38Z"/><path d="M20.27,15.18v-5.86h.8l3.08,4.6v-4.6h.74v5.86h-.79l-3.08-4.6v4.6h-.74Z"/><path d="M26.19,15.18v-5.86h2.02c.46,0,.8,.03,1.04,.08,.33,.08,.62,.22,.86,.42,.31,.26,.54,.59,.69,1s.23,.87,.23,1.39c0,.44-.05,.84-.16,1.18s-.24,.63-.4,.85c-.16,.22-.34,.4-.53,.53-.19,.13-.43,.23-.7,.29-.27,.07-.59,.1-.94,.1h-2.11Zm.78-.69h1.25c.39,0,.69-.04,.91-.11,.22-.07,.39-.17,.53-.3,.18-.18,.33-.43,.43-.74,.1-.31,.15-.69,.15-1.13,0-.61-.1-1.08-.3-1.41-.2-.33-.45-.55-.73-.66-.21-.08-.54-.12-1-.12h-1.23v4.48Z"/><path d="M31.46,15.18l2.25-5.86h.83l2.4,5.86h-.88l-.68-1.77h-2.45l-.64,1.77h-.82Zm1.69-2.41h1.99l-.61-1.62c-.19-.49-.33-.9-.42-1.21-.07,.38-.18,.75-.32,1.12l-.64,1.72Z"/><path d="M37.57,15.18v-5.86h2.6c.52,0,.92,.05,1.19,.16,.27,.11,.49,.29,.65,.56,.16,.27,.24,.56,.24,.88,0,.42-.13,.77-.4,1.05-.27,.29-.68,.47-1.25,.54,.21,.1,.36,.2,.47,.29,.23,.21,.44,.47,.64,.78l1.02,1.59h-.97l-.78-1.22c-.23-.35-.41-.62-.56-.81-.15-.19-.28-.32-.39-.39-.12-.08-.23-.13-.35-.16-.09-.02-.23-.03-.43-.03h-.9v2.6h-.78Zm.78-3.27h1.67c.35,0,.63-.04,.83-.11,.2-.07,.35-.19,.46-.35,.1-.16,.16-.34,.16-.53,0-.28-.1-.51-.3-.68-.2-.18-.52-.27-.95-.27h-1.85v1.94Z"/><path d="M44.97,15.18v-2.48l-2.26-3.38h.94l1.16,1.77c.21,.33,.41,.66,.59,.99,.18-.31,.39-.65,.64-1.04l1.13-1.72h.9l-2.34,3.38v2.48h-.78Z"/></svg>