<?xml version="1.0" encoding="UTF-8"?><svg id="a" xmlns="http://www.w3.org/2000/svg" viewBox="0 0 50 50"><path d="M10.48,26.19l1.14,.29c-.24,.93-.67,1.65-1.29,2.14-.62,.49-1.38,.74-2.27,.74s-1.68-.19-2.26-.57-1.02-.92-1.33-1.64c-.3-.72-.45-1.48-.45-2.31,0-.9,.17-1.68,.51-2.34,.34-.67,.83-1.17,1.46-1.52,.63-.35,1.33-.52,2.09-.52,.86,0,1.58,.22,2.17,.66s1,1.05,1.23,1.85l-1.12,.26c-.2-.63-.49-1.08-.87-1.37-.38-.29-.86-.43-1.43-.43-.66,0-1.21,.16-1.66,.48-.44,.32-.76,.74-.94,1.28-.18,.53-.27,1.08-.27,1.65,0,.73,.11,1.37,.32,1.92,.21,.55,.54,.95,.99,1.22,.45,.27,.94,.4,1.46,.4,.64,0,1.18-.18,1.62-.55,.44-.37,.74-.91,.9-1.64Z"/><path d="M13.05,29.2v-8.6h1.14v3.53h4.47v-3.53h1.14v8.6h-1.14v-4.05h-4.47v4.05h-1.14Z"/><path d="M20.75,29.2l3.3-8.6h1.23l3.52,8.6h-1.3l-1-2.6h-3.6l-.94,2.6h-1.21Zm2.48-3.53h2.92l-.9-2.38c-.27-.72-.48-1.32-.61-1.78-.11,.55-.26,1.1-.46,1.64l-.94,2.52Z"/><path d="M29.67,29.2v-8.6h1.71l2.04,6.09c.19,.57,.32,.99,.41,1.27,.1-.31,.25-.77,.46-1.38l2.06-5.98h1.53v8.6h-1.1v-7.2l-2.5,7.2h-1.03l-2.49-7.32v7.32h-1.1Z"/><path d="M39.72,29.2v-8.6h3.24c.57,0,1.01,.03,1.31,.08,.42,.07,.78,.2,1.06,.4,.29,.2,.51,.47,.69,.83,.17,.36,.26,.75,.26,1.17,0,.73-.23,1.35-.7,1.86-.47,.51-1.31,.76-2.52,.76h-2.21v3.5h-1.14Zm1.14-4.51h2.22c.74,0,1.26-.14,1.57-.41,.31-.27,.46-.66,.46-1.16,0-.36-.09-.67-.27-.92-.18-.26-.42-.43-.72-.51-.19-.05-.55-.08-1.06-.08h-2.2v3.07Z"/></svg>