<?xml version="1.0" encoding="UTF-8"?><svg id="a" xmlns="http://www.w3.org/2000/svg" viewBox="0 0 50 50"><path d="M9.35,20.11l.96,.24c-.2,.79-.56,1.38-1.08,1.79s-1.16,.62-1.91,.62-1.41-.16-1.9-.48c-.49-.32-.86-.78-1.11-1.38-.25-.6-.38-1.25-.38-1.94,0-.75,.14-1.41,.43-1.97s.7-.98,1.23-1.28,1.11-.44,1.75-.44c.72,0,1.33,.18,1.82,.55s.84,.88,1.03,1.55l-.94,.22c-.17-.53-.41-.91-.73-1.15-.32-.24-.72-.36-1.2-.36-.56,0-1.02,.13-1.39,.4-.37,.27-.63,.62-.79,1.07-.15,.45-.23,.91-.23,1.39,0,.61,.09,1.15,.27,1.61,.18,.46,.46,.8,.83,1.03s.79,.34,1.23,.34c.54,0,.99-.15,1.36-.46s.62-.77,.75-1.37Z"/><path d="M11.44,22.64v-7.22h.96v6.37h3.56v.85h-4.51Z"/><path d="M16.3,22.64l2.77-7.22h1.03l2.96,7.22h-1.09l-.84-2.19h-3.02l-.79,2.19h-1.01Zm2.08-2.96h2.45l-.75-2c-.23-.61-.4-1.11-.51-1.5-.09,.46-.22,.92-.39,1.38l-.79,2.12Z"/><path d="M23.49,20.32l.9-.08c.04,.36,.14,.66,.3,.89,.16,.23,.4,.42,.73,.56s.7,.21,1.11,.21c.36,0,.69-.05,.97-.16,.28-.11,.49-.26,.62-.45,.14-.19,.2-.4,.2-.62s-.07-.42-.2-.59c-.13-.17-.35-.31-.65-.43-.19-.08-.62-.19-1.29-.35-.66-.16-1.13-.31-1.39-.45-.34-.18-.6-.4-.77-.67s-.25-.57-.25-.9c0-.36,.1-.71,.31-1.02s.51-.56,.91-.72,.84-.25,1.33-.25c.54,0,1.01,.09,1.42,.26s.72,.43,.94,.76c.22,.33,.34,.71,.35,1.14l-.92,.07c-.05-.46-.22-.8-.5-1.04s-.7-.35-1.26-.35-1,.11-1.26,.32c-.26,.21-.4,.47-.4,.77,0,.26,.09,.47,.28,.64,.18,.17,.66,.34,1.44,.51,.78,.18,1.31,.33,1.6,.46,.42,.19,.73,.44,.93,.74s.3,.64,.3,1.03-.11,.75-.33,1.09-.54,.6-.95,.79c-.41,.19-.88,.28-1.39,.28-.65,0-1.2-.1-1.64-.29-.44-.19-.79-.48-1.04-.86-.25-.38-.38-.81-.4-1.3Z"/><path d="M30.22,20.32l.9-.08c.04,.36,.14,.66,.3,.89,.16,.23,.4,.42,.73,.56s.7,.21,1.11,.21c.36,0,.69-.05,.97-.16,.28-.11,.49-.26,.62-.45,.14-.19,.2-.4,.2-.62s-.07-.42-.2-.59c-.13-.17-.35-.31-.65-.43-.19-.08-.62-.19-1.29-.35-.66-.16-1.13-.31-1.39-.45-.34-.18-.6-.4-.77-.67s-.25-.57-.25-.9c0-.36,.1-.71,.31-1.02s.51-.56,.91-.72,.84-.25,1.33-.25c.54,0,1.01,.09,1.42,.26s.72,.43,.94,.76c.22,.33,.34,.71,.35,1.14l-.92,.07c-.05-.46-.22-.8-.5-1.04s-.7-.35-1.26-.35-1,.11-1.26,.32c-.26,.21-.4,.47-.4,.77,0,.26,.09,.47,.28,.64,.18,.17,.66,.34,1.44,.51,.78,.18,1.31,.33,1.6,.46,.42,.19,.73,.44,.93,.74s.3,.64,.3,1.03-.11,.75-.33,1.09-.54,.6-.95,.79c-.41,.19-.88,.28-1.39,.28-.65,0-1.2-.1-1.64-.29-.44-.19-.79-.48-1.04-.86-.25-.38-.38-.81-.4-1.3Z"/><path d="M37.44,22.64v-7.22h.96v7.22h-.96Z"/><path d="M45.23,20.11l.96,.24c-.2,.79-.56,1.38-1.08,1.79s-1.16,.62-1.91,.62-1.41-.16-1.9-.48c-.49-.32-.86-.78-1.11-1.38-.25-.6-.38-1.25-.38-1.94,0-.75,.14-1.41,.43-1.97s.7-.98,1.23-1.28,1.11-.44,1.75-.44c.72,0,1.33,.18,1.82,.55s.84,.88,1.03,1.55l-.94,.22c-.17-.53-.41-.91-.73-1.15-.32-.24-.72-.36-1.2-.36-.56,0-1.02,.13-1.39,.4-.37,.27-.63,.62-.79,1.07-.15,.45-.23,.91-.23,1.39,0,.61,.09,1.15,.27,1.61,.18,.46,.46,.8,.83,1.03s.79,.34,1.23,.34c.54,0,.99-.15,1.36-.46s.62-.77,.75-1.37Z"/><path d="M9.68,34.74v-6.37h-2.38v-.85h5.72v.85h-2.39v6.37h-.96Z"/><path d="M14.03,34.74v-7.22h5.22v.85h-4.26v2.21h3.99v.85h-3.99v2.46h4.43v.85h-5.39Z"/><path d="M22.57,34.74v-6.37h-2.38v-.85h5.72v.85h-2.39v6.37h-.96Z"/><path d="M26.91,34.74v-7.22h3.2c.64,0,1.13,.06,1.47,.2,.33,.13,.6,.36,.8,.69,.2,.33,.3,.69,.3,1.09,0,.51-.17,.94-.5,1.29-.33,.35-.84,.57-1.54,.67,.25,.12,.45,.24,.58,.36,.28,.26,.54,.58,.79,.96l1.26,1.96h-1.2l-.96-1.5c-.28-.43-.51-.77-.69-.99-.18-.23-.34-.39-.49-.48-.14-.09-.29-.16-.44-.19-.11-.02-.29-.03-.53-.03h-1.11v3.21h-.96Zm.96-4.03h2.05c.44,0,.78-.04,1.02-.14,.25-.09,.43-.23,.56-.43,.13-.2,.19-.42,.19-.65,0-.34-.12-.62-.37-.84-.25-.22-.64-.33-1.17-.33h-2.29v2.39Z"/><path d="M34.34,34.74v-7.22h.96v7.22h-.96Z"/><path d="M36.66,32.42l.9-.08c.04,.36,.14,.66,.3,.89,.16,.23,.4,.42,.73,.56s.7,.21,1.11,.21c.36,0,.69-.05,.97-.16,.28-.11,.49-.26,.62-.45,.14-.19,.2-.39,.2-.62s-.07-.43-.2-.59c-.13-.17-.35-.31-.65-.43-.19-.08-.62-.19-1.29-.35-.66-.16-1.13-.31-1.39-.45-.34-.18-.6-.4-.77-.67s-.25-.57-.25-.9c0-.37,.1-.71,.31-1.02,.21-.32,.51-.56,.91-.72s.84-.25,1.33-.25c.54,0,1.01,.09,1.42,.26,.41,.17,.72,.43,.94,.76,.22,.34,.34,.71,.35,1.14l-.92,.07c-.05-.46-.22-.8-.5-1.04-.28-.23-.7-.35-1.26-.35s-1,.11-1.26,.32c-.26,.21-.4,.47-.4,.77,0,.26,.09,.47,.28,.64,.18,.17,.66,.34,1.44,.52,.78,.18,1.31,.33,1.6,.46,.42,.2,.73,.44,.93,.74,.2,.3,.3,.64,.3,1.03s-.11,.75-.33,1.09-.54,.61-.95,.79c-.41,.19-.88,.28-1.39,.28-.65,0-1.2-.09-1.64-.29-.44-.19-.79-.48-1.04-.86s-.38-.81-.4-1.3Z"/></svg>