<?xml version="1.0" encoding="UTF-8"?><svg id="a" xmlns="http://www.w3.org/2000/svg" viewBox="0 0 50 25"><path d="M7.33,13.15l.88,.22c-.18,.73-.52,1.28-1,1.66-.48,.38-1.07,.57-1.77,.57s-1.3-.15-1.76-.44c-.45-.29-.79-.72-1.03-1.27s-.35-1.15-.35-1.79c0-.7,.13-1.3,.4-1.82,.27-.52,.64-.91,1.13-1.18,.49-.27,1.03-.4,1.62-.4,.67,0,1.23,.17,1.69,.51,.46,.34,.77,.82,.95,1.44l-.87,.21c-.16-.49-.38-.84-.67-1.06-.29-.22-.67-.33-1.11-.33-.51,0-.94,.12-1.29,.37s-.59,.58-.73,.99-.21,.84-.21,1.28c0,.57,.08,1.06,.25,1.49,.17,.42,.42,.74,.77,.95,.35,.21,.73,.31,1.13,.31,.49,0,.91-.14,1.26-.43,.34-.29,.58-.71,.7-1.27Z"/><path d="M9.04,12.24c0-1.11,.3-1.98,.89-2.6,.59-.63,1.36-.94,2.3-.94,.62,0,1.17,.15,1.67,.44,.5,.29,.87,.71,1.13,1.23s.39,1.12,.39,1.79-.14,1.28-.41,1.82c-.27,.53-.66,.94-1.16,1.21s-1.04,.41-1.62,.41c-.63,0-1.19-.15-1.68-.46-.5-.3-.87-.72-1.12-1.24-.26-.53-.38-1.08-.38-1.67Zm.91,.01c0,.8,.22,1.44,.65,1.9,.43,.46,.98,.69,1.63,.69s1.21-.23,1.64-.7c.43-.47,.64-1.13,.64-1.99,0-.54-.09-1.02-.28-1.42s-.45-.72-.81-.94-.75-.33-1.19-.33c-.63,0-1.16,.21-1.62,.64s-.68,1.15-.68,2.15Z"/><path d="M16.53,15.49v-6.68h1.33l1.58,4.73c.15,.44,.25,.77,.32,.99,.08-.24,.19-.6,.36-1.07l1.6-4.65h1.19v6.68h-.85v-5.59l-1.94,5.59h-.8l-1.93-5.68v5.68h-.85Z"/><path d="M24.33,15.49v-6.68h2.52c.44,0,.78,.02,1.02,.06,.33,.05,.6,.16,.82,.31s.4,.37,.54,.64c.14,.28,.2,.58,.2,.91,0,.57-.18,1.05-.54,1.44-.36,.39-1.01,.59-1.96,.59h-1.71v2.71h-.88Zm.88-3.5h1.73c.57,0,.98-.11,1.22-.32,.24-.21,.36-.51,.36-.9,0-.28-.07-.52-.21-.72-.14-.2-.33-.33-.56-.39-.15-.04-.42-.06-.82-.06h-1.71v2.39Z"/><path d="M29.13,15.49l2.56-6.68h.95l2.73,6.68h-1.01l-.78-2.02h-2.79l-.73,2.02h-.94Zm1.93-2.74h2.26l-.7-1.85c-.21-.56-.37-1.02-.47-1.38-.08,.43-.21,.85-.36,1.28l-.73,1.96Z"/><path d="M36.07,15.49v-6.68h.91l3.51,5.24v-5.24h.85v6.68h-.91l-3.51-5.25v5.25h-.85Z"/><path d="M44.7,15.49v-2.83l-2.57-3.85h1.08l1.32,2.01c.24,.38,.47,.75,.68,1.13,.2-.35,.44-.74,.73-1.18l1.29-1.96h1.03l-2.66,3.85v2.83h-.88Z"/></svg>