<?xml version="1.0" encoding="UTF-8"?><svg id="a" xmlns="http://www.w3.org/2000/svg" viewBox="0 0 50 25"><path d="M12.7,9.18l.7,.18c-.15,.58-.41,1.02-.79,1.32-.38,.3-.85,.45-1.4,.45s-1.04-.12-1.39-.35c-.36-.23-.63-.57-.82-1.01-.19-.44-.28-.91-.28-1.42,0-.55,.11-1.03,.32-1.44,.21-.41,.51-.72,.9-.94,.39-.21,.82-.32,1.28-.32,.53,0,.98,.13,1.34,.4,.36,.27,.61,.65,.76,1.14l-.69,.16c-.12-.38-.3-.67-.54-.84-.23-.18-.53-.26-.88-.26-.41,0-.75,.1-1.02,.29s-.47,.46-.58,.79c-.11,.33-.17,.67-.17,1.02,0,.45,.07,.84,.2,1.18,.13,.34,.34,.59,.61,.75,.28,.17,.58,.25,.9,.25,.39,0,.73-.11,1-.34,.27-.23,.46-.56,.55-1.01Z"/><path d="M14.05,8.45c0-.88,.24-1.57,.71-2.07,.47-.5,1.08-.75,1.83-.75,.49,0,.93,.12,1.32,.35,.39,.23,.69,.56,.9,.98,.21,.42,.31,.89,.31,1.42s-.11,1.02-.33,1.44c-.22,.42-.52,.75-.92,.96-.4,.22-.83,.33-1.29,.33-.5,0-.94-.12-1.34-.36-.39-.24-.69-.57-.89-.99-.2-.42-.3-.86-.3-1.32Zm.72,.01c0,.64,.17,1.14,.51,1.51s.77,.55,1.29,.55,.96-.19,1.3-.56c.34-.37,.51-.9,.51-1.58,0-.43-.07-.81-.22-1.13-.15-.32-.36-.57-.64-.75-.28-.18-.6-.27-.95-.27-.5,0-.92,.17-1.28,.51-.36,.34-.54,.91-.54,1.71Z"/><path d="M20.01,11.03V5.74h.72l2.78,4.16V5.74h.67v5.3h-.72l-2.78-4.16v4.16h-.67Z"/><path d="M25.13,9.33l.66-.06c.03,.26,.1,.48,.22,.65,.12,.17,.29,.31,.53,.41,.24,.1,.51,.16,.81,.16,.27,0,.5-.04,.71-.12,.21-.08,.36-.19,.46-.33,.1-.14,.15-.29,.15-.45s-.05-.31-.14-.44c-.1-.12-.26-.23-.48-.31-.14-.05-.46-.14-.94-.26-.49-.12-.83-.23-1.02-.33-.25-.13-.44-.3-.57-.49s-.19-.42-.19-.66c0-.27,.08-.52,.23-.75,.15-.23,.37-.41,.66-.53,.29-.12,.62-.18,.97-.18,.39,0,.74,.06,1.04,.19,.3,.13,.53,.31,.69,.56,.16,.25,.25,.52,.26,.83l-.67,.05c-.04-.33-.16-.59-.37-.76s-.52-.26-.92-.26-.73,.08-.93,.23c-.19,.16-.29,.34-.29,.56,0,.19,.07,.35,.21,.47,.13,.12,.49,.25,1.06,.38,.57,.13,.96,.24,1.17,.34,.31,.14,.54,.32,.68,.54,.15,.22,.22,.47,.22,.75s-.08,.55-.24,.8c-.16,.25-.39,.44-.7,.58-.3,.14-.64,.21-1.02,.21-.48,0-.88-.07-1.21-.21-.32-.14-.58-.35-.76-.63-.18-.28-.28-.6-.29-.95Z"/><path d="M31.65,11.03V6.36h-1.75v-.62h4.2v.62h-1.75v4.67h-.7Z"/><path d="M34.84,11.03V5.74h3.83v.62h-3.13v1.62h2.93v.62h-2.93v1.8h3.25v.62h-3.95Z"/><path d="M39.42,9.44v-.65h2v.65h-2Z"/><path d="M10.39,19.91v-5.3h.7v4.67h2.61v.62h-3.31Z"/><path d="M14.51,19.91v-5.3h.7v4.67h2.61v.62h-3.31Z"/><path d="M18.07,19.91l2.03-5.3h.76l2.17,5.3h-.8l-.62-1.6h-2.21l-.58,1.6h-.74Zm1.53-2.18h1.8l-.55-1.47c-.17-.45-.29-.81-.38-1.1-.07,.34-.16,.68-.29,1.01l-.58,1.55Z"/><path d="M24.39,19.91v-4.67h-1.75v-.62h4.2v.62h-1.75v4.67h-.7Z"/><path d="M27.68,19.91v-5.3h.7v5.3h-.7Z"/><path d="M29.4,17.33c0-.88,.24-1.57,.71-2.07,.47-.5,1.08-.75,1.83-.75,.49,0,.93,.12,1.32,.35s.69,.56,.9,.98,.31,.89,.31,1.42-.11,1.02-.33,1.44c-.22,.42-.52,.75-.92,.96-.4,.22-.83,.33-1.29,.33-.5,0-.94-.12-1.34-.36-.39-.24-.69-.57-.89-.99-.2-.42-.3-.86-.3-1.32Zm.72,.01c0,.64,.17,1.14,.52,1.51,.34,.37,.77,.55,1.29,.55s.96-.19,1.3-.56c.34-.37,.51-.9,.51-1.58,0-.43-.07-.81-.22-1.13s-.36-.57-.64-.75c-.28-.18-.6-.27-.94-.27-.5,0-.92,.17-1.28,.51s-.54,.91-.54,1.71Z"/><path d="M35.37,19.91v-5.3h.72l2.78,4.16v-4.16h.67v5.3h-.72l-2.78-4.16v4.16h-.67Z"/></svg>