<?xml version="1.0" encoding="UTF-8"?><svg id="a" xmlns="http://www.w3.org/2000/svg" viewBox="0 0 50 25"><path d="M7.5,13.51l.89,.23c-.19,.73-.52,1.29-1.01,1.68-.49,.38-1.08,.58-1.78,.58s-1.32-.15-1.77-.44c-.46-.3-.8-.72-1.04-1.29-.24-.56-.36-1.16-.36-1.81,0-.7,.13-1.32,.4-1.84,.27-.52,.65-.92,1.15-1.19,.5-.27,1.04-.41,1.64-.41,.67,0,1.24,.17,1.7,.52,.46,.34,.78,.83,.96,1.45l-.88,.21c-.16-.49-.38-.85-.68-1.07-.3-.22-.67-.34-1.12-.34-.52,0-.95,.12-1.3,.37-.35,.25-.59,.58-.73,1-.14,.42-.21,.85-.21,1.3,0,.57,.08,1.07,.25,1.5,.17,.43,.43,.75,.78,.96,.35,.21,.73,.32,1.15,.32,.5,0,.92-.14,1.27-.43,.35-.29,.58-.72,.7-1.28Z"/><path d="M9.22,12.59c0-1.12,.3-2,.9-2.63,.6-.63,1.38-.95,2.33-.95,.62,0,1.18,.15,1.68,.45,.5,.3,.88,.71,1.14,1.24,.26,.53,.39,1.14,.39,1.81s-.14,1.3-.42,1.84c-.28,.54-.67,.95-1.17,1.23-.51,.28-1.05,.42-1.64,.42-.63,0-1.2-.15-1.7-.46-.5-.31-.88-.73-1.14-1.26s-.39-1.09-.39-1.68Zm.92,.01c0,.81,.22,1.45,.66,1.92,.44,.47,.99,.7,1.64,.7s1.23-.24,1.66-.71c.43-.47,.65-1.14,.65-2.01,0-.55-.09-1.03-.28-1.44-.19-.41-.46-.73-.81-.95-.36-.23-.76-.34-1.2-.34-.63,0-1.18,.22-1.63,.65-.46,.43-.68,1.16-.68,2.17Z"/><path d="M16.81,15.87v-6.75h.92l3.54,5.3v-5.3h.86v6.75h-.92l-3.54-5.3v5.3h-.86Z"/><path d="M23.32,13.71l.84-.07c.04,.34,.13,.61,.28,.83s.37,.39,.68,.52c.31,.13,.65,.2,1.04,.2,.34,0,.64-.05,.9-.15,.26-.1,.46-.24,.58-.42,.13-.18,.19-.37,.19-.58s-.06-.4-.18-.55c-.12-.16-.33-.29-.61-.4-.18-.07-.58-.18-1.2-.33-.62-.15-1.05-.29-1.3-.42-.32-.17-.56-.38-.72-.63s-.24-.53-.24-.84c0-.34,.1-.66,.29-.96,.19-.3,.48-.52,.85-.67,.37-.15,.78-.23,1.24-.23,.5,0,.94,.08,1.32,.24s.68,.4,.88,.71c.21,.31,.32,.67,.33,1.06l-.86,.06c-.05-.43-.2-.75-.47-.97s-.66-.33-1.18-.33-.93,.1-1.18,.3c-.25,.2-.37,.44-.37,.72,0,.24,.09,.44,.26,.6,.17,.16,.62,.32,1.35,.48,.73,.16,1.22,.31,1.49,.43,.39,.18,.68,.41,.87,.69,.19,.28,.28,.6,.28,.96s-.1,.7-.31,1.01c-.21,.32-.5,.56-.89,.74-.38,.18-.82,.26-1.3,.26-.61,0-1.12-.09-1.54-.27-.41-.18-.74-.45-.97-.8s-.36-.76-.37-1.21Z"/><path d="M29.64,12.59c0-1.12,.3-2,.9-2.63,.6-.63,1.38-.95,2.33-.95,.62,0,1.18,.15,1.68,.45,.5,.3,.88,.71,1.14,1.24,.26,.53,.39,1.14,.39,1.81s-.14,1.3-.42,1.84c-.28,.54-.67,.95-1.17,1.23-.51,.28-1.05,.42-1.64,.42-.63,0-1.2-.15-1.7-.46-.5-.31-.88-.73-1.14-1.26s-.39-1.09-.39-1.68Zm.92,.01c0,.81,.22,1.45,.66,1.92,.44,.47,.99,.7,1.64,.7s1.23-.24,1.66-.71c.43-.47,.65-1.14,.65-2.01,0-.55-.09-1.03-.28-1.44-.19-.41-.46-.73-.81-.95-.36-.23-.76-.34-1.2-.34-.63,0-1.18,.22-1.63,.65-.46,.43-.68,1.16-.68,2.17Z"/><path d="M37.21,15.87v-6.75h.89v5.95h3.32v.8h-4.22Z"/><path d="M42.5,15.87v-6.75h4.88v.8h-3.99v2.07h3.73v.79h-3.73v2.3h4.14v.8h-5.04Z"/></svg>