<?xml version="1.0" encoding="UTF-8"?><svg id="a" xmlns="http://www.w3.org/2000/svg" viewBox="0 0 50 25"><path d="M12.3,10.43V4.9h1.9c.43,0,.76,.03,.98,.08,.32,.07,.59,.21,.81,.4,.29,.25,.51,.56,.65,.95,.14,.38,.22,.82,.22,1.31,0,.42-.05,.79-.15,1.12s-.22,.59-.38,.8c-.15,.21-.32,.38-.5,.5-.18,.12-.4,.21-.66,.28-.26,.06-.55,.09-.89,.09h-1.99Zm.73-.65h1.18c.36,0,.65-.03,.86-.1,.21-.07,.37-.16,.5-.29,.17-.17,.31-.41,.41-.7s.14-.65,.14-1.07c0-.58-.09-1.02-.28-1.33-.19-.31-.42-.52-.69-.62-.2-.08-.51-.11-.95-.11h-1.16v4.22Z"/><path d="M17.65,7.73c0-.92,.25-1.64,.74-2.15,.49-.52,1.13-.78,1.91-.78,.51,0,.97,.12,1.38,.37,.41,.24,.72,.58,.94,1.02,.21,.44,.32,.93,.32,1.48s-.11,1.06-.34,1.5c-.23,.44-.55,.78-.96,1-.41,.23-.86,.34-1.34,.34-.52,0-.99-.13-1.4-.38-.41-.25-.72-.59-.93-1.03-.21-.43-.32-.89-.32-1.38Zm.75,.01c0,.67,.18,1.19,.54,1.57,.36,.38,.81,.58,1.35,.58s1-.19,1.36-.58c.36-.39,.53-.94,.53-1.65,0-.45-.08-.84-.23-1.18-.15-.33-.37-.6-.67-.78s-.62-.28-.99-.28c-.52,0-.96,.18-1.34,.53-.37,.36-.56,.95-.56,1.78Z"/><path d="M26.04,10.43V4.9h2.45c.49,0,.87,.05,1.12,.15,.26,.1,.46,.28,.61,.53s.23,.53,.23,.83c0,.39-.13,.72-.38,.99-.25,.27-.65,.44-1.18,.51,.19,.09,.34,.18,.44,.28,.21,.2,.42,.44,.61,.73l.96,1.5h-.92l-.73-1.15c-.21-.33-.39-.58-.53-.76-.14-.18-.26-.3-.37-.37s-.22-.12-.33-.15c-.08-.02-.22-.03-.41-.03h-.85v2.45h-.73Zm.73-3.09h1.57c.33,0,.6-.03,.78-.1s.33-.18,.43-.33c.1-.15,.15-.32,.15-.5,0-.26-.09-.48-.28-.64-.19-.17-.49-.25-.9-.25h-1.75v1.83Z"/><path d="M31.62,10.43V4.9h4v.65h-3.27v1.69h3.06v.65h-3.06v1.88h3.39v.65h-4.12Z"/><path d="M7.26,19.69v-5.53h1.1l1.31,3.91c.12,.36,.21,.64,.26,.82,.06-.2,.16-.5,.29-.89l1.32-3.85h.98v5.53h-.71v-4.63l-1.61,4.63h-.66l-1.6-4.71v4.71h-.71Z"/><path d="M13.84,19.69v-5.53h.73v5.53h-.73Z"/><path d="M17.29,21.23v-.49h4.5v.49h-4.5Z"/><path d="M21.59,21.23v-.49h4.5v.49h-4.5Z"/><path d="M28.49,17.92l.69-.06c.03,.28,.11,.5,.23,.68,.12,.18,.3,.32,.56,.43,.25,.11,.53,.16,.85,.16,.28,0,.52-.04,.74-.12s.37-.2,.48-.34c.1-.14,.16-.3,.16-.47s-.05-.32-.15-.45c-.1-.13-.27-.24-.5-.33-.15-.06-.48-.15-.98-.27s-.86-.24-1.07-.34c-.26-.14-.46-.31-.59-.51-.13-.21-.19-.43-.19-.69,0-.28,.08-.54,.24-.78,.16-.24,.39-.43,.69-.55,.3-.12,.64-.19,1.01-.19,.41,0,.77,.07,1.08,.2,.31,.13,.55,.33,.72,.58,.17,.26,.26,.55,.27,.87l-.7,.05c-.04-.35-.17-.61-.38-.79-.22-.18-.54-.27-.96-.27s-.77,.08-.97,.24-.3,.36-.3,.59c0,.2,.07,.36,.21,.49,.14,.13,.51,.26,1.1,.39,.59,.13,1,.25,1.22,.35,.32,.15,.56,.34,.71,.56s.23,.49,.23,.79-.08,.57-.25,.83c-.17,.26-.41,.46-.73,.61s-.67,.22-1.07,.22c-.5,0-.92-.07-1.26-.22-.34-.15-.6-.37-.8-.66s-.29-.62-.3-.99Z"/><path d="M33.67,17c0-.92,.25-1.64,.74-2.15,.49-.52,1.13-.78,1.91-.78,.51,0,.97,.12,1.38,.37,.41,.24,.72,.58,.94,1.02,.21,.44,.32,.93,.32,1.48s-.11,1.06-.34,1.5c-.23,.44-.55,.78-.96,1-.41,.23-.86,.34-1.34,.34-.52,0-.99-.13-1.4-.38-.41-.25-.72-.59-.93-1.03-.21-.43-.32-.89-.32-1.38Zm.75,.01c0,.67,.18,1.19,.54,1.57,.36,.38,.81,.58,1.35,.58s1-.19,1.36-.58c.36-.39,.53-.94,.53-1.65,0-.45-.08-.84-.23-1.18-.15-.33-.37-.6-.67-.78s-.62-.28-.99-.28c-.52,0-.96,.18-1.34,.53-.37,.36-.56,.95-.56,1.78Z"/><path d="M39.87,19.69v-5.53h.73v4.88h2.72v.65h-3.45Z"/></svg>