<?xml version="1.0" encoding="UTF-8"?><svg id="a" xmlns="http://www.w3.org/2000/svg" viewBox="0 0 8 8"><defs><style>.b{fill:none;stroke:#1d1d1b;stroke-width:var(--outline-width);stroke-miterlimit:10;}</style></defs><polyline class="b" shape-rendering="geometricPrecision" vector-effect="non-scaling-stroke" points="0 2 1 2 1 1 3 1 3 0 3 3 4 3 4 2 5 2 5 1 4 1 4 0 4 1 5 1 5 2 7 2 7 1 6 1 6 0 6 1 7 1 7 3 8 3 7 3 7 2 6 2 6 5 7 5 7 4 8 4 7 4 7 8 7 7 6 7 6 6 5 6 5 7 4 7 4 8 4 7 0 7 3 7 3 6 1 6 1 5 0 5 1 5 1 6 2 6 2 1 2 4 1 4 1 3 0 3 1 3 1 4 4 4 4 3 4 4 6 4 5 4 5 6 5 5 3 5 3 6"/></svg>