<?xml version="1.0" encoding="UTF-8"?><svg id="a" xmlns="http://www.w3.org/2000/svg" viewBox="0 0 50 50"><path d="M7.21,26.15v-.68h2.45v2.15c-.38,.3-.77,.53-1.17,.68-.4,.15-.81,.23-1.23,.23-.57,0-1.09-.12-1.55-.37s-.82-.6-1.05-1.06c-.24-.46-.36-.98-.36-1.54s.12-1.09,.35-1.58,.57-.85,1.02-1.09c.44-.24,.95-.36,1.53-.36,.42,0,.8,.07,1.14,.2s.6,.32,.8,.57,.34,.56,.44,.95l-.69,.19c-.09-.29-.19-.53-.32-.7-.13-.17-.31-.3-.55-.4-.24-.1-.51-.15-.8-.15-.35,0-.65,.05-.91,.16-.26,.11-.46,.25-.62,.42-.16,.17-.28,.36-.37,.57-.15,.36-.22,.75-.22,1.17,0,.52,.09,.95,.27,1.3s.44,.61,.78,.77c.34,.17,.7,.25,1.08,.25,.33,0,.66-.06,.97-.19,.32-.13,.56-.26,.72-.41v-1.08h-1.7Z"/><path d="M10.8,28.42v-5.79h2.57c.52,0,.91,.05,1.18,.16,.27,.1,.48,.29,.64,.55,.16,.26,.24,.55,.24,.87,0,.41-.13,.76-.4,1.04-.27,.28-.68,.46-1.23,.54,.2,.1,.36,.19,.46,.29,.22,.21,.44,.46,.64,.77l1.01,1.58h-.96l-.77-1.21c-.22-.35-.41-.61-.55-.8-.14-.18-.27-.31-.39-.39-.11-.07-.23-.13-.35-.15-.09-.02-.23-.03-.43-.03h-.89v2.57h-.77Zm.77-3.24h1.65c.35,0,.62-.04,.82-.11,.2-.07,.35-.19,.45-.35,.1-.16,.15-.33,.15-.52,0-.27-.1-.5-.3-.68s-.51-.26-.94-.26h-1.83v1.92Z"/><path d="M16.65,28.42v-5.79h4.19v.68h-3.42v1.77h3.2v.68h-3.2v1.97h3.56v.68h-4.32Z"/><path d="M22.05,28.42v-5.79h4.19v.68h-3.42v1.77h3.2v.68h-3.2v1.97h3.56v.68h-4.32Z"/><path d="M28.9,28.42v-5.11h-1.91v-.68h4.59v.68h-1.92v5.11h-.77Z"/><path d="M32.5,28.42v-5.79h.77v5.79h-.77Z"/><path d="M34.61,28.42v-5.79h.79l3.04,4.55v-4.55h.73v5.79h-.79l-3.04-4.55v4.55h-.73Z"/><path d="M43.17,26.15v-.68h2.45v2.15c-.38,.3-.77,.53-1.17,.68-.4,.15-.81,.23-1.23,.23-.57,0-1.09-.12-1.55-.37s-.82-.6-1.05-1.06c-.24-.46-.36-.98-.36-1.54s.12-1.09,.35-1.58,.57-.85,1.02-1.09c.44-.24,.95-.36,1.53-.36,.42,0,.8,.07,1.14,.2s.6,.32,.8,.57,.34,.56,.44,.95l-.69,.19c-.09-.29-.19-.53-.32-.7-.13-.17-.31-.3-.55-.4-.24-.1-.51-.15-.8-.15-.35,0-.65,.05-.91,.16-.26,.11-.46,.25-.62,.42-.16,.17-.28,.36-.37,.57-.15,.36-.22,.75-.22,1.17,0,.52,.09,.95,.27,1.3s.44,.61,.78,.77c.34,.17,.7,.25,1.08,.25,.33,0,.66-.06,.97-.19,.32-.13,.56-.26,.72-.41v-1.08h-1.7Z"/></svg>