<?xml version="1.0" encoding="UTF-8"?><svg id="a" xmlns="http://www.w3.org/2000/svg" viewBox="0 0 50 50"><path d="M8.9,19.57v-1h3.63v3.17c-.56,.44-1.13,.78-1.72,1-.59,.22-1.2,.34-1.82,.34-.84,0-1.61-.18-2.29-.54s-1.21-.88-1.56-1.56-.53-1.44-.53-2.29,.17-1.61,.52-2.33,.85-1.26,1.5-1.61,1.41-.53,2.26-.53c.62,0,1.18,.1,1.68,.3,.5,.2,.89,.48,1.18,.84s.5,.83,.65,1.4l-1.02,.28c-.13-.44-.29-.78-.48-1.03-.19-.25-.46-.45-.82-.6-.35-.15-.75-.22-1.18-.22-.52,0-.97,.08-1.34,.24-.38,.16-.68,.37-.91,.62-.23,.26-.41,.54-.54,.85-.22,.53-.33,1.1-.33,1.72,0,.76,.13,1.4,.39,1.92,.26,.51,.65,.9,1.15,1.15,.5,.25,1.04,.37,1.6,.37,.49,0,.97-.09,1.44-.28,.47-.19,.82-.39,1.06-.6v-1.6h-2.52Z"/><path d="M14.22,22.93V14.37h3.8c.76,0,1.34,.08,1.74,.23,.4,.15,.71,.43,.95,.82s.36,.82,.36,1.29c0,.61-.2,1.12-.59,1.54s-1,.68-1.82,.79c.3,.14,.53,.29,.68,.43,.33,.3,.64,.68,.94,1.14l1.49,2.33h-1.43l-1.13-1.78c-.33-.51-.6-.91-.82-1.18-.21-.27-.41-.46-.58-.57-.17-.11-.34-.18-.52-.23-.13-.03-.34-.04-.63-.04h-1.32v3.8h-1.13Zm1.13-4.79h2.44c.52,0,.92-.05,1.22-.16,.29-.11,.51-.28,.67-.51,.15-.24,.23-.49,.23-.77,0-.41-.15-.74-.44-1-.29-.26-.76-.39-1.39-.39h-2.71v2.83Z"/><path d="M22.87,22.93V14.37h6.2v1.01h-5.06v2.62h4.74v1.01h-4.74v2.92h5.26v1.01h-6.39Z"/><path d="M30.85,22.93V14.37h6.2v1.01h-5.06v2.62h4.74v1.01h-4.74v2.92h5.26v1.01h-6.39Z"/><path d="M38.77,22.93V14.37h1.13v4.25l4.25-4.25h1.54l-3.59,3.47,3.75,5.1h-1.5l-3.05-4.34-1.4,1.37v2.97h-1.13Z"/><path d="M16.22,33.94v-1h3.63v3.17c-.56,.44-1.13,.78-1.72,1-.59,.22-1.2,.34-1.82,.34-.84,0-1.61-.18-2.29-.54s-1.21-.88-1.56-1.56-.53-1.44-.53-2.29,.17-1.61,.52-2.33,.85-1.26,1.5-1.61,1.41-.53,2.26-.53c.62,0,1.18,.1,1.68,.3,.5,.2,.89,.48,1.18,.84s.5,.83,.65,1.4l-1.02,.28c-.13-.44-.29-.78-.48-1.03-.19-.25-.46-.45-.82-.6-.35-.15-.75-.22-1.18-.22-.52,0-.97,.08-1.34,.24-.38,.16-.68,.37-.91,.62-.23,.26-.41,.54-.54,.85-.22,.53-.33,1.1-.33,1.72,0,.76,.13,1.4,.39,1.92,.26,.51,.65,.9,1.15,1.15,.5,.25,1.04,.37,1.6,.37,.49,0,.97-.09,1.44-.28,.47-.19,.82-.39,1.06-.6v-1.6h-2.52Z"/><path d="M21.18,33.12c0-1.42,.38-2.54,1.15-3.34s1.75-1.21,2.96-1.21c.79,0,1.5,.19,2.14,.57,.63,.38,1.12,.91,1.45,1.58s.5,1.44,.5,2.3-.17,1.65-.53,2.33-.85,1.21-1.49,1.56-1.34,.53-2.08,.53c-.81,0-1.53-.2-2.16-.58s-1.12-.92-1.44-1.6c-.33-.67-.49-1.39-.49-2.14Zm1.17,.02c0,1.03,.28,1.85,.83,2.44,.56,.59,1.25,.89,2.09,.89s1.56-.3,2.11-.9c.55-.6,.83-1.45,.83-2.55,0-.7-.12-1.31-.35-1.83-.24-.52-.58-.92-1.04-1.21-.45-.29-.96-.43-1.53-.43-.8,0-1.49,.28-2.07,.83-.58,.55-.87,1.47-.87,2.76Z"/><path d="M30.83,37.3v-8.57h2.95c.67,0,1.17,.04,1.53,.12,.49,.11,.91,.32,1.26,.61,.45,.38,.79,.87,1.01,1.46,.22,.59,.34,1.27,.34,2.04,0,.65-.08,1.23-.23,1.73-.15,.5-.35,.92-.58,1.25-.24,.33-.5,.59-.78,.78-.28,.19-.62,.33-1.02,.43-.4,.1-.86,.15-1.38,.15h-3.09Zm1.13-1.01h1.83c.56,0,1.01-.05,1.33-.16s.58-.25,.77-.44c.27-.27,.48-.63,.63-1.08,.15-.45,.23-1,.23-1.65,0-.9-.15-1.58-.44-2.07-.29-.48-.65-.8-1.07-.97-.3-.12-.79-.18-1.47-.18h-1.8v6.55Z"/></svg>