<?xml version="1.0" encoding="UTF-8"?><svg id="a" xmlns="http://www.w3.org/2000/svg" viewBox="0 0 50 50"><path d="M6.01,29.57v-9.58h1.27v3.93h4.98v-3.93h1.27v9.58h-1.27v-4.51H7.27v4.51h-1.27Z"/><path d="M15.24,24.9c0-1.59,.43-2.83,1.28-3.73,.85-.9,1.96-1.35,3.3-1.35,.88,0,1.68,.21,2.39,.63,.71,.42,1.25,1.01,1.62,1.77,.37,.76,.56,1.61,.56,2.57s-.2,1.84-.59,2.61c-.39,.77-.95,1.35-1.67,1.74-.72,.39-1.49,.59-2.33,.59-.9,0-1.71-.22-2.42-.65-.71-.43-1.25-1.03-1.61-1.78-.37-.75-.55-1.55-.55-2.39Zm1.31,.02c0,1.15,.31,2.06,.93,2.73,.62,.66,1.4,1,2.33,1s1.74-.33,2.35-1.01c.62-.67,.92-1.62,.92-2.85,0-.78-.13-1.46-.4-2.04-.26-.58-.65-1.03-1.16-1.35s-1.08-.48-1.71-.48c-.9,0-1.67,.31-2.32,.92s-.97,1.64-.97,3.09Z"/><path d="M25.99,29.57v-9.58h1.91l2.27,6.78c.21,.63,.36,1.1,.46,1.42,.11-.35,.28-.86,.51-1.54l2.29-6.66h1.71v9.58h-1.22v-8.01l-2.78,8.01h-1.14l-2.77-8.15v8.15h-1.22Z"/><path d="M37.2,29.57v-9.58h6.92v1.13h-5.66v2.93h5.3v1.12h-5.3v3.26h5.88v1.13h-7.15Z"/></svg>