<?xml version="1.0" encoding="UTF-8"?><svg id="a" xmlns="http://www.w3.org/2000/svg" viewBox="0 0 50 50"><path d="M6.47,29.83v-10.28h1.36v4.22h5.34v-4.22h1.36v10.28h-1.36v-4.85H7.83v4.85h-1.36Z"/><path d="M23.54,19.55h1.36v5.94c0,1.03-.12,1.85-.35,2.46-.23,.61-.66,1.1-1.27,1.48-.61,.38-1.41,.57-2.4,.57s-1.75-.17-2.36-.5c-.61-.33-1.05-.81-1.31-1.44-.26-.63-.39-1.49-.39-2.58v-5.94h1.36v5.93c0,.89,.08,1.55,.25,1.97,.17,.42,.45,.75,.86,.98s.9,.34,1.48,.34c1,0,1.71-.23,2.14-.68,.43-.45,.64-1.33,.64-2.62v-5.93Z"/><path d="M27.19,29.83v-10.28h4.56c.92,0,1.61,.09,2.09,.28,.48,.18,.86,.51,1.14,.98,.29,.47,.43,.98,.43,1.55,0,.73-.24,1.34-.71,1.84-.47,.5-1.2,.82-2.19,.95,.36,.17,.63,.34,.82,.51,.4,.36,.77,.82,1.13,1.37l1.79,2.8h-1.71l-1.36-2.14c-.4-.62-.72-1.09-.98-1.42-.26-.33-.49-.56-.69-.69-.2-.13-.41-.22-.62-.27-.15-.03-.41-.05-.76-.05h-1.58v4.56h-1.36Zm1.36-5.74h2.92c.62,0,1.11-.06,1.46-.19,.35-.13,.62-.33,.8-.62,.18-.28,.27-.59,.27-.92,0-.49-.18-.89-.53-1.2-.35-.31-.91-.47-1.67-.47h-3.25v3.4Z"/><path d="M39.89,29.83v-9.07h-3.39v-1.21h8.15v1.21h-3.4v9.07h-1.36Z"/></svg>