<?xml version="1.0" encoding="UTF-8"?><svg id="a" xmlns="http://www.w3.org/2000/svg" viewBox="0 0 50 25"><path d="M2.7,15.07v-5.56h1.11l1.32,3.94c.12,.37,.21,.64,.27,.82,.06-.2,.16-.5,.3-.89l1.33-3.87h.99v5.56h-.71v-4.65l-1.62,4.65h-.66l-1.61-4.73v4.73h-.71Z"/><path d="M8.59,15.07l2.13-5.56h.79l2.28,5.56h-.84l-.65-1.68h-2.32l-.61,1.68h-.78Zm1.6-2.28h1.88l-.58-1.54c-.18-.47-.31-.85-.39-1.15-.07,.36-.17,.71-.3,1.06l-.61,1.63Z"/><path d="M14.35,15.07v-5.56h.74v4.9h2.74v.66h-3.47Z"/><path d="M18.71,15.07v-5.56h4.02v.66h-3.28v1.7h3.08v.65h-3.08v1.89h3.41v.66h-4.15Z"/><path d="M26.03,15.07v-5.56h.76l2.92,4.37v-4.37h.71v5.56h-.76l-2.92-4.37v4.37h-.71Z"/><path d="M31.03,15.07l2.14-5.56h.79l2.28,5.56h-.84l-.65-1.68h-2.33l-.61,1.68h-.78Zm1.6-2.28h1.88l-.58-1.54c-.18-.47-.31-.85-.39-1.15-.07,.36-.17,.71-.3,1.06l-.61,1.63Z"/><path d="M36.8,15.07v-5.56h1.11l1.32,3.94c.12,.37,.21,.64,.26,.82,.06-.2,.16-.5,.3-.89l1.33-3.87h.99v5.56h-.71v-4.65l-1.62,4.65h-.66l-1.61-4.73v4.73h-.71Z"/><path d="M43.31,15.07v-5.56h4.02v.66h-3.28v1.7h3.08v.65h-3.08v1.89h3.41v.66h-4.15Z"/></svg>