<?xml version="1.0" encoding="UTF-8"?><svg id="a" xmlns="http://www.w3.org/2000/svg" viewBox="0 0 50 25"><path d="M19.49,10.28V4.43h.79l3.07,4.59V4.43h.74v5.85h-.79l-3.07-4.6v4.6h-.74Z"/><path d="M25.17,7.43c0-.97,.26-1.73,.78-2.28,.52-.55,1.19-.82,2.02-.82,.54,0,1.03,.13,1.46,.39,.43,.26,.76,.62,.99,1.08,.23,.46,.34,.98,.34,1.57s-.12,1.12-.36,1.59c-.24,.47-.58,.82-1.02,1.06-.44,.24-.91,.36-1.42,.36-.55,0-1.04-.13-1.48-.4-.43-.27-.76-.63-.99-1.09-.22-.46-.33-.95-.33-1.46Zm.8,.01c0,.7,.19,1.26,.57,1.67,.38,.41,.85,.61,1.43,.61s1.06-.2,1.44-.61c.38-.41,.56-.99,.56-1.74,0-.48-.08-.89-.24-1.25-.16-.35-.4-.63-.71-.83-.31-.2-.66-.29-1.04-.29-.55,0-1.02,.19-1.41,.56-.39,.38-.59,1-.59,1.88Z"/><path d="M5.66,20.08v-5.85h2.21c.39,0,.69,.02,.89,.06,.29,.05,.53,.14,.72,.27,.19,.13,.35,.32,.47,.56,.12,.24,.18,.51,.18,.8,0,.5-.16,.92-.47,1.26-.32,.34-.89,.52-1.71,.52h-1.5v2.38h-.77Zm.77-3.07h1.51c.5,0,.86-.09,1.06-.28,.21-.19,.32-.45,.32-.79,0-.24-.06-.45-.19-.63s-.29-.29-.49-.35c-.13-.03-.37-.05-.72-.05h-1.5v2.09Z"/><path d="M11.12,20.08v-5.85h2.59c.52,0,.92,.05,1.19,.16,.27,.1,.49,.29,.65,.56,.16,.27,.24,.56,.24,.88,0,.41-.13,.76-.4,1.05-.27,.28-.68,.47-1.24,.54,.2,.1,.36,.2,.47,.29,.23,.21,.44,.47,.64,.78l1.02,1.59h-.97l-.77-1.22c-.23-.35-.41-.62-.56-.81-.15-.19-.28-.32-.39-.39-.12-.07-.23-.13-.35-.16-.09-.02-.23-.03-.43-.03h-.9v2.6h-.77Zm.77-3.27h1.66c.35,0,.63-.04,.83-.11s.35-.19,.46-.35c.1-.16,.16-.34,.16-.52,0-.28-.1-.5-.3-.68s-.52-.27-.95-.27h-1.85v1.93Z"/><path d="M16.77,17.23c0-.97,.26-1.73,.78-2.28,.52-.55,1.19-.82,2.02-.82,.54,0,1.03,.13,1.46,.39,.43,.26,.76,.62,.99,1.08,.23,.46,.34,.98,.34,1.57s-.12,1.12-.36,1.59c-.24,.47-.58,.82-1.02,1.06-.44,.24-.91,.36-1.42,.36-.55,0-1.04-.13-1.48-.4-.43-.27-.76-.63-.99-1.09-.22-.46-.33-.95-.33-1.46Zm.8,.01c0,.7,.19,1.26,.57,1.67,.38,.41,.85,.61,1.43,.61s1.06-.2,1.44-.61c.38-.41,.56-.99,.56-1.74,0-.48-.08-.89-.24-1.25-.16-.35-.4-.63-.71-.83-.31-.2-.66-.29-1.04-.29-.55,0-1.02,.19-1.41,.56-.39,.38-.59,1-.59,1.88Z"/><path d="M23.33,20.08v-5.85h2.19c.45,0,.81,.06,1.08,.18,.27,.12,.48,.3,.63,.55,.15,.25,.23,.5,.23,.77,0,.25-.07,.49-.2,.71-.14,.22-.34,.4-.62,.53,.35,.1,.63,.28,.82,.53,.19,.25,.29,.54,.29,.89,0,.27-.06,.53-.17,.76-.12,.24-.26,.42-.43,.54-.17,.13-.38,.22-.64,.29-.26,.06-.57,.1-.94,.1h-2.23Zm.77-3.39h1.27c.34,0,.59-.02,.74-.07,.2-.06,.34-.16,.44-.29s.15-.31,.15-.51c0-.19-.05-.36-.14-.51-.09-.15-.23-.25-.4-.3-.17-.05-.47-.08-.89-.08h-1.17v1.77Zm0,2.7h1.46c.25,0,.42,0,.53-.03,.18-.03,.33-.09,.45-.16,.12-.07,.22-.18,.29-.33,.08-.14,.12-.31,.12-.49,0-.22-.06-.41-.17-.57-.11-.16-.27-.27-.46-.34-.2-.07-.48-.1-.86-.1h-1.35v2.01Z"/><path d="M28.78,20.08v-5.85h.77v5.16h2.88v.69h-3.65Z"/><path d="M33.37,20.08v-5.85h4.23v.69h-3.45v1.79h3.24v.69h-3.24v1.99h3.59v.69h-4.36Z"/><path d="M38.78,20.08v-5.85h1.16l1.38,4.14c.13,.39,.22,.67,.28,.87,.07-.21,.17-.52,.31-.94l1.4-4.07h1.04v5.85h-.75v-4.89l-1.7,4.89h-.7l-1.69-4.98v4.98h-.75Z"/></svg>