<?xml version="1.0" encoding="UTF-8"?><svg id="a" xmlns="http://www.w3.org/2000/svg" viewBox="0 0 50 50"><path d="M17.23,14.29v-5h.68l2.63,3.92v-3.92h.63v5h-.68l-2.62-3.93v3.93h-.63Z"/><path d="M22.07,11.86c0-.83,.22-1.48,.67-1.95s1.02-.71,1.72-.71c.46,0,.88,.11,1.25,.33,.37,.22,.65,.53,.85,.92s.29,.84,.29,1.34-.1,.96-.31,1.36-.49,.7-.87,.91c-.38,.21-.78,.31-1.21,.31-.47,0-.89-.11-1.26-.34-.37-.23-.65-.54-.84-.93-.19-.39-.29-.81-.29-1.25Zm.68,.01c0,.6,.16,1.08,.49,1.42,.32,.35,.73,.52,1.22,.52s.91-.18,1.23-.53,.48-.85,.48-1.49c0-.41-.07-.76-.21-1.07-.14-.3-.34-.54-.6-.71-.26-.17-.56-.25-.89-.25-.47,0-.87,.16-1.21,.48-.34,.32-.51,.86-.51,1.61Z"/><path d="M28.98,14.29v-4.41h-1.65v-.59h3.96v.59h-1.65v4.41h-.66Z"/><path d="M12.33,20.71v-.59h2.12v1.85c-.33,.26-.66,.45-1.01,.58-.35,.13-.7,.2-1.06,.2-.49,0-.94-.1-1.34-.31s-.7-.51-.91-.91c-.21-.4-.31-.84-.31-1.33s.1-.94,.3-1.36,.5-.73,.88-.94,.82-.31,1.32-.31c.36,0,.69,.06,.98,.18s.52,.28,.69,.49c.17,.21,.29,.48,.38,.82l-.6,.16c-.08-.25-.17-.46-.28-.6-.11-.14-.27-.26-.48-.35-.21-.09-.44-.13-.69-.13-.3,0-.56,.04-.78,.14-.22,.09-.4,.21-.53,.36-.13,.15-.24,.32-.32,.5-.13,.31-.19,.64-.19,1.01,0,.45,.08,.82,.23,1.12,.15,.3,.38,.52,.67,.67,.29,.15,.61,.22,.93,.22,.29,0,.57-.05,.84-.17,.27-.11,.48-.23,.62-.35v-.93h-1.47Z"/><path d="M15.44,22.67v-5h3.61v.59h-2.95v1.53h2.76v.59h-2.76v1.7h3.07v.59h-3.73Z"/><path d="M21.35,22.67v-4.41h-1.65v-.59h3.96v.59h-1.65v4.41h-.66Z"/><path d="M25.62,22.67v-4.41h-1.65v-.59h3.96v.59h-1.65v4.41h-.66Z"/><path d="M28.72,22.67v-5h.66v5h-.66Z"/><path d="M30.55,22.67v-5h.68l2.63,3.92v-3.92h.63v5h-.68l-2.62-3.93v3.93h-.63Z"/><path d="M37.93,20.71v-.59h2.12v1.85c-.33,.26-.66,.45-1.01,.58-.35,.13-.7,.2-1.06,.2-.49,0-.94-.1-1.34-.31s-.7-.51-.91-.91c-.21-.4-.31-.84-.31-1.33s.1-.94,.3-1.36,.5-.73,.88-.94,.82-.31,1.32-.31c.36,0,.69,.06,.98,.18s.52,.28,.69,.49c.17,.21,.29,.48,.38,.82l-.6,.16c-.08-.25-.17-.46-.28-.6-.11-.14-.27-.26-.48-.35-.21-.09-.44-.13-.69-.13-.3,0-.56,.04-.78,.14-.22,.09-.4,.21-.53,.36-.13,.15-.24,.32-.32,.5-.13,.31-.19,.64-.19,1.01,0,.45,.08,.82,.23,1.12,.15,.3,.38,.52,.67,.67,.29,.15,.61,.22,.93,.22,.29,0,.57-.05,.84-.17,.27-.11,.48-.23,.62-.35v-.93h-1.47Z"/><path d="M5.11,31.05v-5h.66v4.41h2.46v.59h-3.12Z"/><path d="M8.82,28.62c0-.83,.22-1.48,.67-1.95s1.02-.71,1.72-.71c.46,0,.88,.11,1.25,.33,.37,.22,.65,.53,.85,.92s.29,.84,.29,1.34-.1,.96-.31,1.36-.49,.7-.87,.91c-.38,.21-.78,.31-1.21,.31-.47,0-.89-.11-1.26-.34-.37-.23-.65-.54-.84-.93-.19-.39-.29-.81-.29-1.25Zm.68,.01c0,.6,.16,1.08,.49,1.42,.32,.35,.73,.52,1.22,.52s.91-.18,1.23-.53,.48-.85,.48-1.49c0-.41-.07-.76-.21-1.07-.14-.3-.34-.54-.6-.71-.26-.17-.56-.25-.89-.25-.47,0-.87,.16-1.21,.48-.34,.32-.51,.86-.51,1.61Z"/><path d="M14.45,31.05v-5h.68l2.63,3.92v-3.92h.63v5h-.68l-2.62-3.93v3.93h-.63Z"/><path d="M21.83,29.09v-.59h2.12v1.85c-.33,.26-.66,.45-1.01,.58-.35,.13-.7,.2-1.06,.2-.49,0-.94-.1-1.34-.31s-.7-.51-.91-.91c-.21-.4-.31-.84-.31-1.33s.1-.94,.3-1.36,.5-.73,.88-.94,.82-.31,1.32-.31c.36,0,.69,.06,.98,.18s.52,.28,.69,.49c.17,.21,.29,.48,.38,.82l-.6,.16c-.08-.25-.17-.46-.28-.6-.11-.14-.27-.26-.48-.35-.21-.09-.44-.13-.69-.13-.3,0-.56,.04-.78,.14-.22,.09-.4,.21-.53,.36-.13,.15-.24,.32-.32,.5-.13,.31-.19,.64-.19,1.01,0,.45,.08,.82,.23,1.12,.15,.3,.38,.52,.67,.67,.29,.15,.61,.22,.93,.22,.29,0,.57-.05,.84-.17,.27-.11,.48-.23,.62-.35v-.93h-1.47Z"/><path d="M24.9,31.05v-5h1.88c.38,0,.69,.05,.92,.15,.23,.1,.41,.26,.54,.47,.13,.21,.2,.43,.2,.66,0,.21-.06,.42-.17,.6-.12,.19-.29,.34-.52,.46,.3,.09,.53,.24,.7,.45,.16,.21,.24,.47,.24,.76,0,.23-.05,.45-.15,.65-.1,.2-.22,.36-.37,.46-.15,.11-.33,.19-.55,.25-.22,.06-.49,.08-.81,.08h-1.91Zm.66-2.9h1.08c.29,0,.5-.02,.63-.06,.17-.05,.29-.13,.38-.25,.08-.12,.13-.26,.13-.44,0-.16-.04-.31-.12-.44-.08-.12-.19-.21-.34-.26-.15-.05-.4-.07-.76-.07h-1v1.51Zm0,2.31h1.24c.21,0,.36,0,.45-.02,.15-.03,.28-.07,.38-.14,.1-.06,.19-.16,.25-.28,.07-.12,.1-.26,.1-.42,0-.19-.05-.35-.14-.49-.1-.14-.23-.23-.4-.29-.17-.06-.41-.08-.73-.08h-1.16v1.72Z"/><path d="M29.03,31.05l1.92-5h.71l2.04,5h-.75l-.58-1.51h-2.09l-.55,1.51h-.7Zm1.44-2.05h1.69l-.52-1.38c-.16-.42-.28-.77-.35-1.04-.06,.32-.15,.64-.27,.95l-.55,1.47Z"/><path d="M34.25,31.05v-5h2.22c.45,0,.78,.04,1.02,.13,.23,.09,.42,.25,.56,.47,.14,.23,.21,.48,.21,.75,0,.36-.12,.65-.34,.9-.23,.24-.58,.4-1.06,.46,.17,.09,.31,.17,.4,.25,.19,.18,.38,.4,.55,.66l.87,1.36h-.83l-.66-1.04c-.19-.3-.35-.53-.48-.69-.12-.16-.24-.27-.34-.33-.1-.06-.2-.11-.3-.13-.08-.02-.2-.03-.37-.03h-.77v2.22h-.66Zm.66-2.79h1.42c.3,0,.54-.03,.71-.09,.17-.06,.3-.16,.39-.3,.09-.14,.13-.29,.13-.45,0-.24-.08-.43-.26-.58-.17-.15-.44-.23-.81-.23h-1.58v1.65Z"/><path d="M39.06,29.45l.62-.05c.03,.25,.1,.46,.21,.62,.11,.16,.28,.29,.5,.39,.23,.1,.48,.15,.77,.15,.25,0,.47-.04,.67-.11s.34-.18,.43-.31c.09-.13,.14-.27,.14-.43s-.05-.29-.14-.41-.24-.22-.45-.29c-.13-.05-.43-.13-.89-.24-.46-.11-.78-.21-.96-.31-.24-.12-.42-.28-.53-.46-.12-.19-.17-.39-.17-.62,0-.25,.07-.49,.21-.71,.14-.22,.35-.38,.63-.5,.28-.11,.58-.17,.92-.17,.37,0,.7,.06,.98,.18s.5,.29,.65,.53c.15,.23,.23,.5,.25,.79l-.63,.05c-.03-.32-.15-.55-.35-.71-.2-.16-.49-.24-.87-.24s-.69,.07-.87,.22c-.18,.15-.27,.32-.27,.53,0,.18,.06,.33,.19,.44,.13,.12,.46,.23,1,.36,.54,.12,.91,.23,1.11,.32,.29,.13,.5,.3,.64,.51s.21,.44,.21,.71-.08,.52-.23,.75-.37,.42-.66,.55-.61,.2-.96,.2c-.45,0-.83-.06-1.14-.2-.31-.13-.55-.33-.72-.59-.17-.27-.27-.56-.27-.9Z"/><path d="M17.47,39.43v-5h.66v5h-.66Z"/><path d="M19.07,37.83l.62-.05c.03,.25,.1,.46,.21,.62,.11,.16,.28,.29,.5,.39,.23,.1,.48,.15,.77,.15,.25,0,.47-.04,.67-.11s.34-.18,.43-.31c.09-.13,.14-.27,.14-.43s-.05-.29-.14-.41-.24-.22-.45-.29c-.13-.05-.43-.13-.89-.24-.46-.11-.78-.21-.96-.31-.24-.12-.42-.28-.53-.46-.12-.19-.17-.39-.17-.62,0-.25,.07-.49,.21-.71,.14-.22,.35-.38,.63-.5,.28-.11,.58-.17,.92-.17,.37,0,.7,.06,.98,.18s.5,.29,.65,.53c.15,.23,.23,.5,.25,.79l-.63,.05c-.03-.32-.15-.55-.35-.71-.2-.16-.49-.24-.87-.24s-.69,.07-.87,.22c-.18,.15-.27,.32-.27,.53,0,.18,.06,.33,.19,.44,.13,.12,.46,.23,1,.36,.54,.12,.91,.23,1.11,.32,.29,.13,.5,.3,.64,.51s.21,.44,.21,.71-.08,.52-.23,.75-.37,.42-.66,.55-.61,.2-.96,.2c-.45,0-.83-.06-1.14-.2-.31-.13-.55-.33-.72-.59-.17-.27-.27-.56-.27-.9Z"/><path d="M25.25,40.82v-.44h4.07v.44h-4.07Z"/><path d="M29.13,40.82v-.44h4.07v.44h-4.07Z"/></svg>