<?xml version="1.0" encoding="UTF-8"?><svg id="a" xmlns="http://www.w3.org/2000/svg" viewBox="0 0 50 50"><path d="M10.77,22.67v-6.02h2.27c.4,0,.71,.02,.92,.06,.3,.05,.54,.14,.74,.28,.2,.14,.36,.33,.48,.58,.12,.25,.18,.52,.18,.82,0,.51-.16,.95-.49,1.3s-.91,.53-1.77,.53h-1.54v2.45h-.8Zm.8-3.16h1.56c.52,0,.88-.1,1.1-.29,.22-.19,.32-.46,.32-.81,0-.25-.06-.47-.19-.65s-.29-.3-.5-.36c-.13-.04-.38-.05-.74-.05h-1.54v2.15Z"/><path d="M16.52,22.67v-6.02h.8v6.02h-.8Z"/><path d="M18.73,22.67v-6.02h2.67c.54,0,.95,.05,1.22,.16,.28,.11,.5,.3,.67,.57s.25,.58,.25,.91c0,.43-.14,.79-.42,1.08s-.7,.48-1.28,.56c.21,.1,.37,.2,.48,.3,.23,.21,.45,.48,.66,.8l1.05,1.64h-1l-.8-1.25c-.23-.36-.42-.64-.57-.83-.15-.19-.29-.33-.4-.4s-.24-.13-.36-.16c-.09-.02-.24-.03-.44-.03h-.92v2.67h-.8Zm.8-3.36h1.71c.37,0,.65-.04,.85-.11,.21-.08,.36-.2,.47-.36,.11-.17,.16-.35,.16-.54,0-.28-.1-.52-.31-.7-.21-.18-.53-.28-.98-.28h-1.91v1.99Z"/><path d="M24.13,22.67l2.31-6.02h.86l2.46,6.02h-.91l-.7-1.82h-2.52l-.66,1.82h-.85Zm1.74-2.47h2.04l-.63-1.67c-.19-.51-.33-.92-.43-1.25-.08,.39-.18,.77-.32,1.15l-.66,1.77Z"/><path d="M31.31,22.67v-5.31h-1.98v-.71h4.77v.71h-1.99v5.31h-.8Z"/><path d="M34.93,22.67v-6.02h4.35v.71h-3.56v1.84h3.33v.71h-3.33v2.05h3.7v.71h-4.49Z"/><path d="M6.5,30.4v-.71h2.55v2.23c-.39,.31-.8,.55-1.21,.7-.42,.16-.84,.24-1.28,.24-.59,0-1.13-.13-1.61-.38-.48-.25-.85-.62-1.09-1.1-.25-.48-.37-1.01-.37-1.61s.12-1.13,.37-1.64c.24-.51,.6-.89,1.06-1.13,.46-.25,.99-.37,1.59-.37,.44,0,.83,.07,1.18,.21,.35,.14,.63,.34,.83,.59s.35,.58,.46,.99l-.72,.2c-.09-.31-.2-.55-.34-.72s-.33-.32-.57-.42c-.25-.11-.53-.16-.83-.16-.36,0-.68,.06-.95,.17-.27,.11-.48,.26-.64,.44-.16,.18-.29,.38-.38,.6-.15,.37-.23,.78-.23,1.21,0,.54,.09,.99,.28,1.35,.18,.36,.45,.63,.81,.8s.73,.26,1.12,.26c.35,0,.68-.07,1.01-.2,.33-.13,.58-.27,.75-.42v-1.12h-1.77Z"/><path d="M10.24,32.76v-6.02h2.67c.54,0,.94,.05,1.22,.16,.28,.11,.5,.3,.67,.57,.17,.27,.25,.58,.25,.91,0,.43-.14,.79-.42,1.08-.28,.29-.7,.48-1.28,.56,.21,.1,.37,.2,.48,.3,.23,.21,.45,.48,.66,.8l1.05,1.64h-1l-.8-1.25c-.23-.36-.42-.64-.58-.83-.15-.19-.29-.33-.4-.4s-.24-.13-.36-.16c-.09-.02-.24-.03-.44-.03h-.92v2.67h-.8Zm.8-3.36h1.71c.36,0,.65-.04,.85-.11,.21-.08,.36-.2,.47-.36,.11-.17,.16-.35,.16-.54,0-.28-.1-.52-.31-.7-.21-.18-.53-.27-.98-.27h-1.91v1.99Z"/><path d="M16.32,32.76v-6.02h4.35v.71h-3.56v1.84h3.33v.71h-3.33v2.05h3.7v.71h-4.49Z"/><path d="M21.93,32.76v-6.02h4.35v.71h-3.56v1.84h3.33v.71h-3.33v2.05h3.7v.71h-4.49Z"/><path d="M29.05,32.76v-5.31h-1.98v-.71h4.77v.71h-1.99v5.31h-.8Z"/><path d="M32.79,32.76v-6.02h.8v6.02h-.8Z"/><path d="M34.99,32.76v-6.02h.82l3.16,4.73v-4.73h.76v6.02h-.82l-3.16-4.73v4.73h-.76Z"/><path d="M43.89,30.4v-.71h2.55v2.23c-.39,.31-.79,.55-1.21,.7-.42,.16-.84,.24-1.28,.24-.59,0-1.13-.13-1.61-.38-.48-.25-.85-.62-1.09-1.1-.25-.48-.37-1.01-.37-1.61s.12-1.13,.37-1.64c.25-.51,.6-.89,1.06-1.13,.46-.25,.99-.37,1.59-.37,.44,0,.83,.07,1.18,.21s.63,.34,.83,.59,.35,.58,.46,.99l-.72,.2c-.09-.31-.2-.55-.34-.72s-.33-.32-.58-.42c-.25-.11-.53-.16-.83-.16-.36,0-.68,.06-.94,.17-.27,.11-.48,.26-.64,.44-.16,.18-.29,.38-.38,.6-.15,.37-.23,.78-.23,1.21,0,.54,.09,.99,.28,1.35,.18,.36,.45,.63,.81,.8,.35,.18,.73,.26,1.13,.26,.34,0,.68-.07,1.01-.2,.33-.13,.58-.27,.75-.42v-1.12h-1.77Z"/></svg>