<?xml version="1.0" encoding="UTF-8"?><svg id="a" xmlns="http://www.w3.org/2000/svg" viewBox="0 0 50 50"><path d="M8.14,21.13V11.73h3.54c.62,0,1.1,.03,1.43,.09,.46,.08,.85,.22,1.16,.44,.31,.22,.56,.52,.75,.91,.19,.39,.29,.82,.29,1.28,0,.8-.25,1.48-.76,2.03s-1.43,.83-2.76,.83h-2.41v3.82h-1.24Zm1.24-4.93h2.43c.8,0,1.37-.15,1.71-.45s.51-.72,.51-1.26c0-.39-.1-.73-.3-1.01-.2-.28-.46-.46-.79-.55-.21-.06-.6-.08-1.16-.08h-2.4v3.36Z"/><path d="M16.84,21.13V11.73h1.24v8.29h4.63v1.11h-5.87Z"/><path d="M23.16,21.13l3.61-9.4h1.34l3.84,9.4h-1.42l-1.1-2.85h-3.93l-1.03,2.85h-1.32Zm2.71-3.86h3.19l-.98-2.6c-.3-.79-.52-1.44-.67-1.95-.12,.6-.29,1.2-.51,1.79l-1.03,2.76Z"/><path d="M34.62,21.13v-3.98l-3.62-5.42h1.51l1.85,2.83c.34,.53,.66,1.06,.96,1.59,.28-.49,.62-1.04,1.03-1.66l1.82-2.76h1.45l-3.75,5.42v3.98h-1.24Z"/><path d="M38.92,18.31v-1.16h3.54v1.16h-3.54Z"/><path d="M4.8,33.86l1.17-.1c.06,.47,.19,.86,.39,1.16,.2,.3,.52,.54,.95,.73,.43,.19,.91,.28,1.44,.28,.47,0,.89-.07,1.26-.21s.63-.33,.81-.58c.18-.25,.27-.51,.27-.8s-.09-.55-.26-.77c-.17-.22-.45-.4-.85-.55-.25-.1-.81-.25-1.67-.46-.86-.21-1.47-.4-1.81-.59-.45-.23-.78-.53-1-.88-.22-.35-.33-.74-.33-1.17,0-.47,.13-.92,.4-1.33,.27-.41,.66-.73,1.18-.94,.52-.21,1.09-.32,1.72-.32,.7,0,1.31,.11,1.84,.34,.53,.22,.94,.55,1.23,.99,.29,.44,.44,.93,.46,1.48l-1.19,.09c-.06-.59-.28-1.04-.65-1.35-.37-.3-.92-.46-1.64-.46s-1.3,.14-1.64,.41c-.34,.28-.52,.61-.52,1,0,.34,.12,.62,.37,.83,.24,.22,.86,.44,1.87,.67,1.01,.23,1.7,.43,2.08,.6,.55,.25,.95,.57,1.21,.96s.39,.83,.39,1.34-.14,.97-.43,1.41c-.29,.44-.7,.79-1.23,1.03-.54,.25-1.14,.37-1.81,.37-.85,0-1.56-.12-2.14-.37-.57-.25-1.03-.62-1.35-1.12-.33-.5-.5-1.06-.52-1.69Z"/><path d="M16.37,36.88v-8.29h-3.1v-1.11h7.45v1.11h-3.11v8.29h-1.24Z"/><path d="M24.64,36.88v-3.98l-3.62-5.42h1.51l1.85,2.83c.34,.53,.66,1.06,.95,1.59,.28-.49,.62-1.04,1.03-1.66l1.82-2.76h1.45l-3.75,5.42v3.98h-1.24Z"/><path d="M30.7,36.88v-9.4h1.24v8.29h4.63v1.11h-5.87Z"/><path d="M38.07,36.88v-9.4h6.79v1.11h-5.55v2.88h5.2v1.1h-5.2v3.2h5.77v1.11h-7.01Z"/></svg>