<?xml version="1.0" encoding="UTF-8"?><svg id="a" xmlns="http://www.w3.org/2000/svg" viewBox="0 0 50 25"><path d="M4.09,15.74v-5.31h-1.98v-.71H6.88v.71h-1.99v5.31h-.8Z"/><path d="M7.71,15.74v-6.02h4.35v.71h-3.55v1.84h3.33v.71h-3.33v2.05h3.69v.71H7.71Z"/><path d="M13.3,15.74v-6.02h.82l3.16,4.72v-4.72h.76v6.02h-.82l-3.16-4.73v4.73h-.76Z"/><path d="M19.37,15.74v-6.02h2.07c.47,0,.83,.03,1.07,.09,.34,.08,.64,.22,.88,.43,.32,.27,.55,.61,.71,1.03,.16,.42,.24,.89,.24,1.43,0,.46-.05,.86-.16,1.21-.11,.35-.24,.65-.41,.88-.17,.23-.35,.41-.55,.55s-.44,.23-.72,.3-.6,.1-.97,.1h-2.17Zm.8-.71h1.29c.4,0,.71-.04,.93-.11s.41-.18,.54-.31c.19-.19,.34-.44,.44-.76s.16-.71,.16-1.16c0-.63-.1-1.11-.31-1.45-.21-.34-.46-.56-.75-.68-.21-.08-.56-.12-1.03-.12h-1.26v4.6Z"/><path d="M25.46,15.74v-6.02h4.35v.71h-3.55v1.84h3.33v.71h-3.33v2.05h3.69v.71h-4.49Z"/><path d="M31.04,15.74v-6.02h.82l3.16,4.72v-4.72h.76v6.02h-.82l-3.16-4.73v4.73h-.76Z"/><path d="M41.41,13.63l.8,.2c-.17,.65-.47,1.15-.9,1.5-.43,.34-.96,.52-1.59,.52s-1.18-.13-1.58-.4-.72-.65-.93-1.15-.32-1.04-.32-1.61c0-.63,.12-1.17,.36-1.64s.58-.82,1.02-1.06c.44-.24,.93-.36,1.46-.36,.6,0,1.11,.15,1.52,.46,.41,.31,.7,.74,.86,1.29l-.78,.18c-.14-.44-.34-.76-.61-.96-.26-.2-.6-.3-1-.3-.46,0-.85,.11-1.16,.33s-.53,.52-.66,.89c-.12,.37-.19,.76-.19,1.16,0,.51,.07,.96,.22,1.34,.15,.38,.38,.67,.7,.86,.32,.19,.66,.28,1.02,.28,.45,0,.82-.13,1.13-.39,.31-.26,.52-.64,.63-1.15Z"/><path d="M44.88,15.74v-2.55l-2.32-3.47h.97l1.19,1.81c.22,.34,.42,.68,.61,1.02,.18-.31,.4-.67,.66-1.06l1.17-1.77h.93l-2.4,3.47v2.55h-.8Z"/></svg>