<?xml version="1.0" encoding="UTF-8"?><svg id="a" xmlns="http://www.w3.org/2000/svg" viewBox="0 0 50 25"><path d="M11.66,17.23v-7.65h-2.86v-1.02h6.87v1.02h-2.87v7.65h-1.15Z"/><path d="M16.88,17.23V8.56h1.15v3.56h4.51v-3.56h1.15v8.67h-1.15v-4.09h-4.51v4.09h-1.15Z"/><path d="M31.28,8.56h1.15v5.01c0,.87-.1,1.56-.29,2.08s-.55,.93-1.07,1.25c-.51,.32-1.19,.48-2.03,.48s-1.48-.14-1.99-.42c-.52-.28-.88-.68-1.11-1.21s-.33-1.25-.33-2.17v-5.01h1.15v5c0,.75,.07,1.31,.21,1.67,.14,.36,.38,.63,.72,.83,.34,.19,.76,.29,1.25,.29,.84,0,1.45-.19,1.8-.57,.36-.38,.54-1.12,.54-2.21v-5Z"/><path d="M33.95,14.45l1.08-.09c.05,.43,.17,.79,.36,1.07s.48,.5,.87,.67c.39,.17,.84,.26,1.33,.26,.44,0,.82-.07,1.16-.2,.34-.13,.59-.31,.75-.54,.16-.23,.24-.47,.24-.74s-.08-.51-.24-.71-.42-.37-.78-.51c-.23-.09-.75-.23-1.54-.42s-1.35-.37-1.67-.54c-.41-.22-.72-.49-.93-.81s-.3-.68-.3-1.08c0-.44,.12-.85,.37-1.23,.25-.38,.61-.67,1.09-.87,.48-.2,1.01-.3,1.59-.3,.64,0,1.21,.1,1.7,.31,.49,.21,.87,.51,1.13,.91,.26,.4,.41,.86,.43,1.37l-1.1,.08c-.06-.55-.26-.96-.6-1.24-.34-.28-.85-.42-1.51-.42s-1.2,.13-1.52,.38c-.32,.25-.47,.56-.47,.92,0,.31,.11,.57,.34,.77,.22,.2,.8,.41,1.73,.62,.93,.21,1.57,.39,1.92,.55,.51,.23,.88,.53,1.12,.88,.24,.36,.36,.77,.36,1.23s-.13,.9-.39,1.3c-.27,.41-.64,.73-1.14,.95-.5,.23-1.05,.34-1.67,.34-.78,0-1.44-.11-1.97-.34-.53-.23-.95-.57-1.25-1.03-.3-.46-.46-.98-.48-1.56Z"/></svg>