<?xml version="1.0" encoding="UTF-8"?><svg id="a" xmlns="http://www.w3.org/2000/svg" viewBox="0 0 50 25"><path d="M12.16,8.48h1.14v4.99c0,.87-.1,1.56-.29,2.07-.2,.51-.55,.93-1.06,1.25-.51,.32-1.19,.48-2.02,.48s-1.47-.14-1.99-.42c-.51-.28-.88-.68-1.1-1.21-.22-.53-.33-1.25-.33-2.17v-4.99h1.14v4.98c0,.75,.07,1.3,.21,1.66s.38,.63,.72,.82,.76,.29,1.25,.29c.84,0,1.44-.19,1.8-.57s.54-1.11,.54-2.2v-4.98Z"/><path d="M15.19,17.12V8.48h1.17l4.54,6.78v-6.78h1.1v8.64h-1.17l-4.54-6.79v6.79h-1.1Z"/><path d="M24.11,17.12V8.48h1.14v8.64h-1.14Z"/><path d="M26.92,12.91c0-1.43,.38-2.56,1.15-3.37,.77-.81,1.76-1.22,2.98-1.22,.8,0,1.52,.19,2.16,.57,.64,.38,1.13,.91,1.46,1.59,.34,.68,.5,1.46,.5,2.32s-.18,1.66-.53,2.35-.85,1.21-1.5,1.57c-.65,.36-1.35,.53-2.1,.53-.81,0-1.54-.2-2.18-.59-.64-.39-1.13-.93-1.46-1.61-.33-.68-.49-1.4-.49-2.16Zm1.18,.02c0,1.04,.28,1.86,.84,2.46,.56,.6,1.26,.9,2.11,.9s1.57-.3,2.12-.91c.56-.6,.83-1.46,.83-2.57,0-.7-.12-1.32-.36-1.84s-.59-.93-1.04-1.22c-.46-.29-.97-.43-1.54-.43-.81,0-1.51,.28-2.09,.83-.58,.56-.88,1.48-.88,2.78Z"/><path d="M36.65,17.12V8.48h1.17l4.54,6.78v-6.78h1.1v8.64h-1.17l-4.54-6.79v6.79h-1.1Z"/></svg>